<?xml version="1.0" encoding="UTF-8"?><svg id="Capa_1" xmlns="http://www.w3.org/2000/svg" viewBox="0 0 898.94 899.18"><defs><style>.cls-1{fill:#90490a;}.cls-2{fill:#c39656;}.cls-3{fill:#f5e0c7;}.cls-4{fill:#c08130;}.cls-5{fill:#934a0a;}.cls-6{fill:#cb892f;}.cls-7{fill:#90490c;}.cls-8{fill:#9c5a12;}.cls-9{fill:#c98c29;}.cls-10{fill:#c79859;}.cls-11{fill:#99530f;}.cls-12{fill:#f7bb50;}.cls-13{fill:#b2731d;}.cls-14{fill:#f9bc50;}.cls-15{fill:#c49656;}.cls-16{fill:#fabe4b;}.cls-17{fill:#f7bc51;}.cls-18{fill:#985411;}.cls-19{fill:#f7bc4d;}.cls-20{fill:#f3b955;}.cls-21{fill:#f7bc4f;}.cls-22{fill:#904909;}.cls-23{fill:#954f0b;}.cls-24{fill:#c49657;}.cls-25{fill:#965211;}.cls-26{fill:#97510f;}.cls-27{fill:#97530e;}.cls-28{fill:#b9771d;}.cls-29{fill:#c39554;}.cls-30{fill:#f2b855;}.cls-31{fill:#c69756;}.cls-32{fill:#f2b953;}.cls-33{fill:#f5b956;}.cls-34{fill:#b97b20;}.cls-35{fill:#f6bd4f;}.cls-36{fill:#f8bb51;}.cls-37{fill:#c19353;}.cls-38{fill:#b47a1e;}.cls-39{fill:#c69856;}.cls-40{fill:#a15c15;}.cls-41{fill:#c39555;}.cls-42{fill:#c28f4c;}.cls-43{fill:#98520d;}.cls-44{fill:#99540f;}.cls-45{fill:#f7ba53;}.cls-46{fill:#924a09;}.cls-47{fill:#b7741e;}.cls-48{fill:#a46018;}.cls-49{fill:#f1b655;}.cls-50{fill:#ae6b17;}.cls-51{fill:#c88b2a;}.cls-52{fill:#c28433;}.cls-53{fill:#f8bc4f;}.cls-54{fill:#9b5312;}.cls-55{fill:#955404;}.cls-56{fill:#f3b856;}.cls-57{fill:#b5761d;}.cls-58{fill:#f8bc50;}.cls-59{fill:#f8bd51;}.cls-60{fill:#cc9d61;}.cls-61{fill:#f7bc4e;}.cls-62{fill:#9a550e;}.cls-63{fill:#8c4801;}.cls-64{fill:#955310;}.cls-65{fill:#c29455;}.cls-66{fill:#f7bd4c;}.cls-67{fill:#c49554;}.cls-68{fill:#c09352;}.cls-69{fill:#af6c19;}.cls-70{fill:#ba7c31;}.cls-71{fill:#b7771e;}.cls-72{fill:#f8bc52;}.cls-73{fill:#954f0d;}.cls-74{fill:#f7ba55;}.cls-75{fill:#9b5a07;}.cls-76{fill:#f3b854;}.cls-77{fill:#b87524;}.cls-78{fill:#b87c22;}.cls-79{fill:#b2711e;}.cls-80{fill:#cc9d5e;}.cls-81{fill:#995707;}.cls-82{fill:#cb892d;}.cls-83{fill:#f3b953;}.cls-84{fill:#f8bd50;}.cls-85{fill:#8e490a;}.cls-86{fill:#f2b954;}.cls-87{fill:#c18230;}.cls-88{fill:#c39659;}.cls-89{fill:#bd7d25;}.cls-90{fill:#bb7920;}.cls-91{fill:#f7bb51;}.cls-92{fill:#c29353;}.cls-93{fill:#bb7c26;}.cls-94{fill:#8f4a09;}.cls-95{fill:#c59757;}.cls-96{fill:#f8bb55;}.cls-97{fill:#f3b954;}.cls-98{fill:#91490a;}.cls-99{fill:#f3b956;}.cls-100{fill:#f7bc50;}.cls-101{fill:#c39556;}.cls-102{fill:#985212;}</style></defs><g><path class="cls-65" d="M511.44,661.03c14.27,35.5,12.92,72.57,12.42,109.86-.32,23.5,12.68,44.08,19.78,65.95,5.77,17.78,5.48,35.06-7.68,50.09-2.39,2.73-5.03,6.26-9.38,3.84-4.26-2.37-5.02-6.23-3.2-10.7,6.34-15.66,2.54-29.85-6.1-43.48-18.37-29-29.3-60.18-25.52-95.03,2.94-27.09-7.34-51-16.7-75.21-2.81-7.25-5.13-14.58-5.94-22.34-1.2-1.85-1.47-3.81-.66-5.88,1.23-1.77,2.75-3,5.08-2.67,3.28,1.66,4.77,4.79,5.26,8.01,2.58,16.96,9.87,32.4,15.74,48.23,4.42,11.92,6.59,23.9,5.55,36.41-3.27,39.37,6.77,75.24,27.19,108.76,6.36,10.44,12.47,21.66,8.11,34.81,4.02-10.2,3.27-20.7,.36-31.18-1.66-5.98-4.49-11.55-7.02-17.22-8.51-19.06-14.8-38.64-13.06-59.93,3.04-37.32-3.07-73.29-16.68-107.97-3.32-8.47-.66-18.3-6.75-25.89-2.88-2.4-6.72-2.88-9.82-4.87-1.06-.92-1.32-2.03-.79-3.33,9.83-5.65,20.33-8.86,31.75-8.71,3.59,2.72-5.04,6.29,.64,8.87,3.92,19.79,15.56,36.31,23.33,54.46,24.83,58.04,51.88,115.09,76.96,171.7-16.05-41.97-32.54-85.08-48.61-128.34-12.2-32.82-24.67-65.55-36.94-98.35-.73-1.96-2.02-3.59-3.33-5.2-1.11-1.52-1.95-3.17-2.27-5.04,4.06-9.94,13.15-11.45,22.12-13.14,3.46,2.58,1.76,6.16,1.81,9.42-2.74,5.25,1.28,8.58,3.67,12.2,7.08,10.76,15.46,20.79,24.64,29.49,19.05,18.05,29.33,40.6,38.35,64.38,7.16,18.87,18.34,35.14,34.5,47.7,10.79,8.39,21.41,16.97,30.71,27.07,6.02,6.54,10.7,13.64,11.58,20.81,.1-14.36-7.24-27.3-18.17-38.68-6.88-7.16-13.71-14.4-20.69-21.43-16.38-16.51-23.46-37.73-31.35-58.59-7.24-19.15-16.65-36.84-30.74-51.99-8.74-9.39-15.8-20.22-23.51-30.48-2.38-3.18-4.16-7.62-9.63-5.5-4.02-.18-6.34-2.72-8.22-5.89,5.21-10.86,13.97-17.31,25.41-20.42,2.76,1.85,3.68,4.59,3.71,7.75-1.66,6.76,3.68,9.63,7.6,12.98,18.57,15.85,36.07,32.88,53.8,49.62,38.47,36.32,76.88,72.69,113.38,106.46-39.25-43.79-83.01-87.7-124.38-133.85-11.88-13.25-25.82-24.55-36.63-38.8-1.94-2.56-4.59-3.35-7.72-2.41-3.12-.04-5.84-.95-7.74-3.6,3.95-10.78,9.11-20.58,20.49-25.38,2.76,1.93,3.68,4.76,3.88,7.94-1.27,5.76,2.98,7.99,6.76,10.5,9.68,6.43,20.16,11.35,30.87,15.66,22.22,8.96,41.88,21.69,57.33,39.98,20.41,24.14,46.96,36.54,76.9,43.99,15.25,3.79,30.24,9.31,37.98,25.09,1.79,3.64,4.5,7.06,3.15,11.56-2.08,3.31-4.41,4.1-6.04-.11-7.33-18.97-24.02-25.06-41.4-29.23-30-7.2-56.24-20.65-76.66-44.05-17.78-20.38-39.37-34.47-65.12-42.52-3.8-1.19-7.18-3.7-10.75-5.61-2.56-3.98-7.93-1.74-10.8-5.04-1.02-1.22-1.35,.38-.98,.54,2.79,1.21,3.75,4.06,4.81,6.71,34.2,36.42,68.43,72.83,102.61,109.27,18.09,19.29,36.2,38.57,54.11,58.03,4.25,4.62,11.35,9.76,4.11,16.56-6.49,6.1-11.33-.5-15.66-4.53-46.57-43.39-93.02-86.9-139.55-130.32-7.79-7.27-15.81-14.29-23.73-21.43-3.85-3.63-9.03-5.68-12.22-10.31,2.29,4.09,4.19,8.22,5.35,12.67,5.71,6.95,11.31,13.99,17.15,20.82,12.73,14.9,23.95,30.82,29.3,49.87,9,32.05,26.67,58.31,51.15,80.46,13.52,12.23,21.72,27.05,19.85,46.01-.36,3.67-1.36,7.28-2.2,10.89-.84,3.61-2.99,6.09-6.9,5.79-3.77-.29-6.22-2.7-6.23-6.51-.04-21.38-14.11-33.23-29.44-44.6-24.86-18.43-43.86-41.56-52.81-71.6-8.03-26.97-27-45.99-45.59-65.33-2.54-2.65-4.59-5.58-7.03-8.23-1.41-2.48-4.77-2.52-5.1-3.94,1.89,1.82-2.27,5.89,.57,8.74,21.69,57.4,43.37,114.81,65.07,172.21,5.4,14.28,10.9,28.52,16.29,42.8,1.86,4.94,2.7,10.28-2.85,13.08-6.2,3.13-9.87-.59-12.45-6.26-12.63-27.75-25.5-55.39-38.12-83.14-18.4-40.47-36.67-81.01-54.99-121.52-6.39-6.28-9.42-14.22-10.6-19.75,3.08,6.83,2.78,17.44,5.29,27.51Z"/><path class="cls-92" d="M292.33,315.76c-23.04-24.8-46.06-49.62-69.14-74.38-29.3-31.44-58.67-62.82-87.97-94.26-3.94-4.22-9.22-8.79-3.74-14.79,6.13-6.72,11.02-1.29,15.61,3.02,56.03,52.55,112.06,105.11,168.1,157.66,4.49,2.35,8.8,4.97,12.26,8.86-3.88-3.79-5.09-8.97-7.55-13.39-4.52-5.87-8.63-12.11-13.63-17.53-18.19-19.77-31.68-42.03-39.02-68.07-7.54-26.78-24.67-47.33-44.5-65.94-14.07-13.2-24.61-28.04-22.21-48.68,.47-4.05,1.64-8.07,2.88-11.97,.95-3.01,3.29-4.79,6.64-4.4,3.28,.38,5.62,2.42,5.57,5.65-.35,22.63,15.26,34.56,30.93,46.36,26.24,19.77,44.26,45.11,54,76.62,4.42,14.29,12.68,26.61,22.98,37.65,12.11,12.97,23.64,26.47,37.79,42.42-6.78-18.28-12.41-33.65-18.16-48.97-22.56-60.06-45.16-120.11-67.75-180.16-.72-1.93-1.92-3.73-2.34-5.7-.9-4.2-1.04-8.62,3.56-10.8,4.84-2.29,8.94-.74,11.4,4.09,2.81,5.5,5.52,11.06,8.08,16.68,28.76,63.33,57.49,126.67,86.23,190.01,6.15,6.43,9.42,14.27,10.59,20.4-3.61-7.33-2.14-18.19-5.35-28.15-13.92-34.66-13.07-70.87-12.31-107.32,.52-24.92-12.97-46.5-20.31-69.55-5.53-17.37-4.59-34.29,8.27-48.8,2.39-2.69,4.98-6.31,9.34-3.65,4,2.44,5.38,6.15,3.31,10.67-6.93,15.16-2.95,28.93,5.36,42.15,18.47,29.37,29.77,60.8,25.97,96.07-3.01,27.96,8.11,52.58,17.62,77.52,2.87,7.54,.59,17.4,9.36,22.49,3.16,2.88,3.4,6.32,1.05,9.57-2.36,3.27-5.51,2.18-8.44,.51-9.61-8.5-7.32-21.5-11.99-31.98-11.53-25.88-18.77-52.72-16.13-81.64,2.49-27.35-6.25-52.25-18.76-76.07-4.43-8.43-9.48-16.54-13.14-25.34-3.71-8.93-6.36-18.05-1.48-27.49-6.09,10.72-5.25,21.71-1.48,32.97,7.32,21.9,17.77,42.77,20.28,66.27,.99,9.26-.03,18.2-.9,27.17-2.97,30.56,5.79,58.99,15.08,87.32,3.53,10.76,5.68,21.56,5.25,32.87-3.85,7.2-10.22,9.75-17.98,9.73-1.11-.74-1.78-1.78-1.99-3.1,1.32-10.19-4.49-18.24-8.35-26.79-23.12-51.19-46.72-102.16-69.6-153.46-7.22-16.18-14.75-32.22-21.7-48.53,18.36,46.66,35.76,93.7,53.44,140.63,10.03,26.63,19.63,53.43,29.97,79.95,1.86,4.78,3.73,9.12,8.07,12.04,1.75,1.89,2.89,4.06,2.96,6.69-5.37,8.54-13.54,11.86-23.2,12.42-2.75-2.02-3.75-4.83-3.69-8.13,2.1-5.96-1.4-10.24-4.33-14.77-7.26-11.21-17.04-20.32-26.01-29.97-14.97-16.11-26.04-34.18-32.77-54.92-8.82-27.18-27.4-46.81-48.96-64.15-5.49-4.41-10.85-8.98-16.13-13.61-10.36-9.08-16.49-20.24-14.31-32.59,.06-3.73-2.24-2-.63-2.39,.68-.17,1.05,.11,.94,.8-3.15,19.35,4.93,34.5,17.78,47.95,8.57,8.97,17.78,17.31,25.78,26.87,14.18,16.96,20.56,37.62,28.02,57.73,7.17,19.33,17.45,36.56,32.05,51.12,11.43,11.4,18.09,26.67,30.42,37.32,1.04,1.61,1.38,3.38,1.21,5.27-3.1,7.67-7.8,13.69-16.35,15.68-3.35-1.67-5.75-4.1-6.33-7.98,1.32-5.51-2.46-8.65-6-11.28-16.67-12.39-30.62-27.8-45.73-41.84-42.05-39.07-83.62-78.67-124.93-117.28,51.82,56.68,106.4,111.96,158.18,169.85,3.2,3.58,6.01,8.28,12.14,6.88,3.82,.55,6.21,2.94,7.96,6.17-4.03,10.15-10.45,18.12-20.69,22.6-2.69-1.98-3.61-4.8-3.78-7.97,1.26-5.8-3-8.1-6.87-10.46-9.2-5.61-18.75-10.73-28.78-14.56-21.3-8.13-40.48-19.65-55.13-37-22.75-26.92-52.2-40.87-85.57-49.07-16.5-4.06-31.27-11.63-35.5-30.64,.36-2.52,.53-5.21,4.21-4.86,8.87,20.09,26.98,25.55,46.2,30.42,23.72,6.02,47.05,15.17,63.03,34.07,23.16,27.39,52.72,43.86,84.69,57.49,3.59,2.7,8.56,1.58,12.15,4.44-2.08-2.02-3.67-4.31-5.08-6.74Z"/><path class="cls-37" d="M357.26,632.79c-.27-.63-.2-1.23,.21-1.79,3.51-3.69,4.43-8.32,4.01-13.08-.22-2.54-2.01-3.07-3.71-.61-8.85,16.13-18.12,32.06-26.43,48.47-6.85,13.52-15.48,25.76-27.17,34.97-29.12,22.95-47.52,52.87-60.84,86.84-7.05,17.98-20.16,29.96-40.34,32.23-4.1,.46-8.97,1.1-10.85-3.64-2.23-5.66,2.4-8.15,6.52-10.22,14.84-7.45,21.77-20.06,25.36-35.79,7.72-33.79,23.2-63.28,50.52-85.67,17.51-14.34,26.91-34.02,35.56-54.2,2.41-5.61,5.14-11.09,7.72-16.63,2.6-3.76,2.07-8.66,3.21-10.21-.87,1.53-4.85,2.98-8.36,5.05-37.85,35.68-75.67,71.4-113.57,107.03-17.46,16.42-35.11,32.64-52.64,48.98-4.38,4.08-9.01,8.72-14.71,2.74-5.7-5.98-.61-10.52,3.35-14.76,45.14-48.32,90.32-96.6,135.44-144.94,5.87-6.29,11.45-12.87,17.16-19.31,3.46-5.87,8.1-10.7,13.35-15-5.68,4.28-11.99,7.36-18.37,10.32-24.83,20.69-49.58,41.55-82.15,49.35-1.96,.47-3.99,.61-5.99,.9-2.34,.59-4.76,1.63-6.49-1.17,1.48-6.3,6.83-7.81,11.94-9.16,24.56-6.51,45.76-18.79,64.19-36.21,8.44-7.97,18.3-14.22,27.53-21.24,3.18-2.42,7.59-4.21,5.36-9.66,.25-4,2.76-6.32,5.99-8.12,10.31,5.64,18.19,13.25,20.36,25.42-1.89,2.73-4.62,3.67-7.79,3.68-3.85-1.27-5.86,1.08-8.31,3.61-35.03,36.26-68.91,73.62-103.57,110.24-19.79,20.92-39.89,41.62-58.6,63.58,37.59-36.58,76.13-72.17,114.56-107.85,17.85-16.57,34.36-34.64,53.62-49.73,4.25-3.33,10.05-6.63,8.28-13.94,.05-3.16,1-5.9,3.6-7.89,12.91,1.35,19.28,10.82,25.44,20.55-1.79,2.9-4.61,3.82-7.78,4.08-5.69-1.33-8.19,2.59-10.62,6.53-5.64,9.17-10.55,18.78-14.57,28.72-8.98,22.17-20.86,42.33-39.3,57.89-24.8,20.93-37.6,48.48-45.94,79.01-4.01,14.69-8.82,29.53-22.2,36.95,14.51-4.94,22.77-17.16,28.38-32.51,10.82-29.57,27.4-55.05,52.39-75.25,17.76-14.37,31.78-32.29,39.84-54.42,3.38-9.27,9.91-17.13,15.13-25.57,3.41-5.52,7.89-10.81,6.71-18.11,.12-1.89,.65-3.62,1.91-5.08,9.89-1.02,16.55,3.67,21.17,11.98-.15,1.95-1,3.62-2.08,5.2-4.35,4.73-4.79,11.34-7.9,16.55-2.07,3.46-1.9,10.45-9.28,8.32-.28-2.53-.49-5.05,.72-7.43Z"/><path class="cls-67" d="M464.77,262.57c7.69-3.79,6.36-11.25,7.33-17.84,3.63-24.8,2.29-50.43,11.97-74.19,4.49-11.02,9.47-21.87,14.88-32.46,13.41-26.27,10.29-54.82,11.79-82.69,.97-17.9,8.72-31.42,23.51-41.21,4.42-2.93,9.31-5.19,13.41-.73,4.06,4.41,.54,8.47-2.84,11.71-13.14,12.6-11.4,28.38-9.42,44.12,2.59,20.59,3.9,41.07-.74,61.63-2.21,9.78-6.12,18.85-10.11,27.83-7.24,16.27-13.93,32.24-13.96,50.73-.03,17.7-2.45,35.4-3.98,55.17,6.53-7.91,8.98-15.81,12.32-23.17,29.27-64.52,58.38-129.1,87.85-193.53,2.78-6.09,4.2-17.18,14.38-13.12,11.2,4.47,3.69,13.72,1.27,20.2-25.91,69.48-52.22,138.81-78.43,208.18-.67,7.35-5.25,13.93-4.24,21.58,1.06,1.19,2.19,2.29,3.11,3.6,1.39,2.51,2.32,5.17,2.73,8.02,.06,1.91-.42,3.6-1.95,4.88-9.67-.11-16.78-4.47-21.4-12.93-.3-1.95,0-3.79,.99-5.5,3.41-2.4,5.87-5.28,7.44-9.44,28.25-74.87,55.64-150.06,85.52-226.5-34.54,79.7-71.32,156.14-104.65,234.14-10-.98-13.01-8.12-14.61-16.53,.81-20.64,3.66-41.13,4.42-61.8,.63-17.24,7.44-32.97,14.92-48.31,12.25-25.13,13.46-51.58,10.4-78.85-1.97-17.5-4.47-35.48,6.84-50.56-17.61,18.67-13.69,43.54-15.37,66.48-1.29,17.64-2.53,34.99-11.37,50.29-16.89,29.25-21.41,61.34-24.09,94.06-.54,6.6-2.01,13.08-2.87,19.65-.77,5.86-2.65,11.35-8.66,14.17-4.92,.16-9.53,.03-6.38-7.07Z"/><path class="cls-2" d="M357.26,632.79c.1,2.76,.2,5.52,.3,8.27,3.08,3.17,2.51,6.79,1.15,10.41-23.77,63.47-47.32,127.02-71.48,190.34-.88,2.3-2.84,4.12-3.02,6.88,26.89-60.93,55.12-121.11,82.11-181.83,6.43-14.46,16.96-27.71,17.14-44.67,.69-3.31-.79-7.17,2.42-9.88,11.1,.44,21.48,3.51,31.27,8.68,.68,1.24,.54,2.37-.41,3.42-3.1,2.25-7.02,2.7-10.21,4.76-5.68,6.42-4.95,14.55-5.59,22.13-1.22,14.41-2.71,28.79-3.11,43.3-.38,13.61-3.29,26.97-10.09,39.31-15.77,28.6-19.85,59.12-15.24,91.38,2.23,15.63,5.85,32.02-4.81,45.98,8.55-7.93,9.84-19.15,10.99-30.29,1.5-14.4,3.05-28.77,2.94-43.32-.11-14.75,3.85-28.99,11.12-41.6,15.77-27.35,20.61-57.31,23.33-87.96,.7-7.84,2.28-15.55,3.32-23.34,.82-6.11,2.14-12.41,8.83-15.4,7.08-.05,10.1,2.48,6.05,9.5-7.89,2.25-6.53,9.24-7.17,14.82-1.84,16.01-2.84,32.12-4.89,48.09-2.23,17.32-8.44,33.53-16.85,48.7-12.4,22.35-16.47,46.29-16.4,71.48,.03,12.69,.67,25.49-3.67,37.97-4.05,11.64-11.89,19.51-21.77,26.04-4.15,2.74-8.28,4.62-12.12,.24-3.58-4.08-1.06-8.1,1.98-10.94,12-11.2,13.43-25.62,10.83-40.13-6.65-37.08-2.82-72.26,15.27-105.68,6.6-12.19,8.52-25.58,8.95-39.44,.54-17.31,2.29-34.58,3.73-54.83-9.67,13.49-13.6,26.74-19.23,39.02-26.78,58.37-53.18,116.9-79.71,175.38-.34,.75-.43,1.65-.88,2.31-3.82,5.68-4.85,16.77-14.94,12.36-10.05-4.4-3.4-12.98-1.01-19.34,25.76-68.54,51.76-136.98,77.74-205.44,.87-2.3,2.09-4.46,3.15-6.68Z"/><path class="cls-95" d="M636.14,355.46c71.13-26.9,142.27-53.76,213.36-80.77,5.88-2.23,11.68-4.12,14.84,2.87,2.95,6.52-2.07,9.61-7.33,12-28.06,12.79-56.11,25.62-84.14,38.48-41.48,19.04-82.94,38.12-124.41,57.19-5.22,4.71-11.21,7.39-16.8,7.81,8.55-3.54,19.53-.6,29.35-5.42,35.13-13.7,71.71-13.08,108.61-12.3,24.43,.52,45.67-12.98,68.34-20.26,17.44-5.6,34.3-4.4,48.84,8.34,2.7,2.37,6.39,4.9,3.71,9.31-2.45,4.03-6.28,5.39-10.73,3.34-15.21-7.02-29.14-2.88-42.17,5.41-30.97,19.72-64.34,29.71-101.23,25.99-25.82-2.61-48.4,8.47-71.3,17.3-7.9,3.05-18.37,.34-23.75,9.57-3.08,3.25-6.9,3.52-9.85,.67-3.63-3.52-.44-6.68,1.88-9.57,4.04-3.95,9.21-5.5,14.57-6.24,5.8-.8,11.34-2.42,16.66-4.73,28.54-12.36,58.08-17.63,89.35-15.87,31.56,1.77,58.38-13.3,84.81-28.11,11.12-6.23,22.18-10.43,34.9-5.7-11.06-5.54-22.14-4.51-33.41-.48-22.15,7.92-43.62,18.09-67.48,20.5-6.2,.62-12.47,1.89-18.54,.7-32.66-6.44-63.14,2.67-93.44,12.79-11.16,3.73-22.23,6.45-34.02,3.99-6.54-3.49-8.79-9.43-9.26-16.36,.6-1.23,1.58-1.97,2.92-2.23,5.02,.36,9.87-.3,14.48-2.47,70.95-33.36,142.77-64.78,211.52-96.14-39.61,15.7-82.19,31.54-124.72,47.51-27.43,10.3-55.13,19.87-82.21,31.12-7.21,2.99-14.41,6.47-22.65,4.88-1.17-.7-1.73-1.74-1.67-3.11,4.3-8.96,13.19-8.31,20.97-10Z"/><path class="cls-24" d="M240.32,511.42c-7.73,2.26-15.42,4.62-23.18,6.75-16,4.39-32.28,8.31-48.9,6.17-37.43-4.84-71.76,4.98-105.76,19.26-17.26,7.25-34.88,5.47-49.91-7.37-2.96-2.53-7.18-5.29-3.61-10.26,2.83-3.95,6.46-4.36,10.94-2.5,13.15,5.46,25.43,3.5,37.76-3.52,19.68-11.2,39.5-22.23,62.23-26.54,7.83-1.48,15.72-2.4,23.45-1.53,31.81,3.56,61.39-4.51,90.2-16.55,7.69-3.21,15.82-3.87,23.61-6.22,2.55-1.89,5.21-2.07,7.97-.52,1.04,1.08,1.36,2.35,.96,3.8-1.94,3.55-5.3,5.28-8.95,6.09-15.78,3.53-30.87,9.27-45.82,15.11-16.27,6.36-32.91,7.61-49.9,6.56-34.73-2.14-65.93,7.99-95.41,25.58-13.07,7.8-26.73,15.39-43.09,8.39-1.53,.12,.18,2.28-.08,.65-.09-.56,.33-.78,1.15-.43,14.22,6.06,28.32,4.87,41.87-1.64,29-13.94,59.43-19.98,91.44-16.91,28,2.69,53.96-5.58,79.8-14.14,11.59-3.84,23.38-4.87,35.28-6.12,8.07,3.34,7.45,11.13,9.07,17.77-.64,1.19-1.63,1.9-2.96,2.14-11.46-.93-20.52,5.72-30.13,10.08-65.79,29.86-131.42,60.05-197.61,89.02-.89,.39-1.61,.35-1.5,.39,38.83-13.79,77.38-29.55,116.46-43.9,27.88-10.24,55.76-20.49,83.38-31.42,3.47-1.37,7.11-2.24,10.93-1.64,1.93,.7,3.23,1.98,3.75,4-17.07,11.17-36.97,15.65-55.61,22.93-52.18,20.36-104.89,39.35-157.32,59.07-6.07,2.28-12.54,5.56-16.08-2.05-3.71-7.99,3.64-10.76,9.2-13.29,55.06-25.01,110.19-49.87,165.26-74.87,12.22-5.55,24.27-11.48,36.4-17.24,6.09-6.61,14.44-8.29,18.59-9.69-4.96,2.78-14.56,2.97-23.88,4.59Z"/><path class="cls-68" d="M583.25,292.45c18.57-16.98,37.28-33.81,55.67-50.98,37.49-34.99,74.81-70.15,112.2-105.25,.9-.85,1.86-1.65,2.74-2.51,3.82-3.74,8.15-6.65,12.95-2.22,5.3,4.89,2.57,9.58-1.48,13.92-23.44,25.08-46.8,50.23-70.27,75.28-28.81,30.74-57.7,61.4-86.56,92.09-2.91,7.99-11.2,11.91-14.66,19.44,.55,3.11,2.17,5.54,4.63,7.45,1.34,.94,2.58,1.98,3.28,3.51-.45,3.84-2.89,6.1-6.15,7.69-9.91-5.96-18.09-13.28-20.07-25.49,1.91-2.7,4.64-3.63,7.8-3.65,7.29,1.64,10.34-4.3,13.95-8.39,33.15-37.51,68.43-73.02,102.4-109.75,18.19-19.67,37.07-38.72,52.18-56.16-43.16,38.55-86.6,82.26-132.58,123.24-13.59,12.12-25.12,26.41-39.75,37.43-2.63,1.98-3.24,4.63-2.24,7.73-.03,3.17-.98,5.91-3.6,7.9-12.91-1.44-19.4-10.75-25.39-20.69,1.92-2.84,4.76-3.78,8-3.88,6.55,1.43,8.62-3.67,11.03-7.87,6.61-11.49,12.63-23.32,17.73-35.54,7.63-18.28,18.13-34.69,33.17-47.43,26.07-22.07,41.08-49.9,48.77-82.87,3.97-17.02,10.92-33.5,31.11-38.24,2.53,.37,5.22,.57,4.83,4.25-25.6,10.93-26.84,36.47-34.13,58.01-7.96,23.52-19.52,44.61-38.88,60.2-24.84,20-35.69,48.53-49.02,75.69-1.95,5.62-2.48,11.91-6.56,14.67,1.66-2.3,4.88-5.36,8.88-7.58Z"/><path class="cls-101" d="M636.98,511.2c19.05,5.45,36.31,15.16,54.27,23.15,52.58,23.42,104.87,47.46,157.28,71.26,2.63,1.2,5.25,2.42,7.9,3.59,5.67,2.5,11.21,5.88,7.75,12.89-3.31,6.71-9.22,4.56-15.07,2.35-65.11-24.53-130.3-48.86-195.46-73.24-12.01-1.83-23.36-5.65-33.64-11.42,7.15,6.04,17.87,7.46,23.49,16.35,29.37,13.35,54.15,32.38,74.5,57.65,17.75,22.04,44.35,30.42,68.91,41.8,15.3,7.09,28.8,16.01,30.2,35.17-6.19,3.03-8.24-1.81-10.02-5.79-5.3-11.83-14.79-18.43-26.47-22.84-30.56-11.55-58.59-26.41-78.8-53.7-18.68-25.23-48.17-35.79-74.35-50.55-7.25-4.08-12.78-12.37-22.74-10.95-2.37,.38-4.81,1.18-6.88-.85,.53-9.62,3.74-17.77,12.56-22.84,1.92,.25,3.57,1.1,5.13,2.17,14.65,8.81,31.2,13.1,46.97,19.06,61.48,23.25,123.12,46.09,184.33,70.07,1.13,.44,2.36,.75,2.47,.75-39.15-17.69-79.55-35.19-119.41-53.87-28.45-13.33-57.58-25.15-85.79-39.01-4.39-2.16-9.3-3.84-11.27-9.08,.76-1.96,1.79-3.37,4.17-2.12Z"/><path class="cls-21" d="M603.3,544.02c3-1.36,5.62-2.79,9.07-.12,18.95,14.69,41.17,23.88,61.64,36.04,13.9,8.26,24.94,19.44,34.59,31.56,15.17,19.06,34.24,31.68,56.33,40.61,7.6,3.07,15.51,5.53,22.74,9.31,9.57,5,18.62,11.1,21.97,22.31,1.21,4.05,3.11,6.65,7.46,7.01-1.09,4.23,4.54,10.71-4.15,12.38-8.7-21.88-26.54-29.89-48.16-35.43-22.48-5.76-45.19-13.38-61.17-32.29-22.62-26.76-50.78-45.16-83.43-57.44-7.56-2.85-14.3-8.06-21.12-12.63-3.64-2.44-6.83-5.81-.32-9.03,16.33,2.06,28.46,13.58,43.18,19.41,8.98,3.56,17.44,8.95,25.83,14.05,7.5,3.99,13.95,9.34,19.6,15.72-5.41-6.03-11.32-11.44-18.38-15.44-18.86-11.41-39.26-20.2-57.17-33.16-4.07-2.95-11.26-4.93-8.51-12.85Z"/><path class="cls-31" d="M262.88,432.13c-16.51-7.87-34.7-6.99-52.1-8.52-21.87-1.92-42.23-7.46-61.14-17.75-24.02-13.07-49.51-17.33-76.37-16.73-12.35,.28-24.79,.28-36.57-4.61-10.79-4.47-18.42-12.41-24.2-22.22-2.22-3.77-2.6-8.33,1.2-11.3,3.54-2.77,7.26-.84,9.88,2.13,11.7,13.27,27.19,13.4,42.47,11.05,36.13-5.56,70.66-2.76,103.22,15.31,13.68,7.59,29.06,8.69,44.32,9.63,15.66,.96,31.32,1.87,47.35,1.92-20.77-13.35-44.96-19.92-65.81-32.99,.51-2,1.82-3.25,3.7-3.97,18.19,1.43,32.32,13.15,48.66,19.32,10.23,3.86,19.22,11.26,31.02,10.49,2.08,.72,3.08,2.23,3.23,4.38-2.13,11.29-11.24,12.24-20.09,13.59-23.03-1.66-46.07-2.97-69.06-5.41-16.19-1.71-29.56-10.37-44.01-16.24-22.13-8.99-44.84-10.81-68.18-8.09-10.69,1.24-21.39,2.45-32.13,2.09-9.21-.31-17.94-2.56-24.22-10.15,8.57,10.84,20.81,13.42,33.6,14.62,14.39,1.35,28.73,3.1,43.27,2.92,15.62-.19,30.51,4.31,43.85,11.96,27.38,15.71,57.32,20.01,87.96,22.79,11.73,1.07,24.08,.59,34.83,7.12,2.03,4.83,1.17,8.09-4.69,8.63Z"/><path class="cls-39" d="M636.98,511.2c-1.19,.99-2.38,1.98-3.57,2.98-4.94,1.88-9.31,.97-13.11-2.71-1.49-10.7,6.09-12.66,13.88-14.43,22.66,1.47,45.27,3.74,67.95,5.05,16.72,.97,30.92,9,45.51,15.63,23.92,10.87,48.72,11.81,74.21,9.2,16.38-1.68,32.99-4.22,45.87,2.72-9.44-6.83-15.72-8.98-30.66-9.43-10.33-.31-20.67-.7-30.99-1.15-24.74-1.08-46.7-9.93-68.18-21.13-15.68-8.17-32.78-11.91-50.26-12.25-15.89-.31-31.09-4.58-46.71-6.22-4.47-.47-9.02-1.76-11.6-6.25-.94-7.61,.09-12.93,9.66-8.34,.48,9.56,8.33,6.32,13.18,7.01,20.03,2.83,40.2,4.69,60.23,7.56,13.15,1.88,25.56,7.11,36.72,13.86,29.24,17.68,61.67,16.66,93.78,17.5,17.59,.46,30.84,8.05,41.08,21.71,3.51,4.68,7.52,10.34,2,15.42-4.89,4.49-9.24-.37-12.71-3.78-10.23-10.04-23-11.57-35.87-9.22-38.78,7.07-75.78,2.93-110.57-16.02-16.49-8.98-34.57-7.07-52.07-9.12-11.49-1.35-23.09-1.77-34.65-2.58-2.95-.21-6.79-1.01-3.12,4Z"/><path class="cls-29" d="M596.01,342.63c-2.25-3.57-4.5-7.15-6.75-10.72,8.67-3.64,15.29-10.73,24.02-14.28,18.94-12.31,33.85-30.21,54.97-39.48,.38-.17,.7-.48,1.09-.59,40.99-11.86,75.52-33.51,104.57-65.11,11.33-12.32,28.09-15.11,44.97-10.34,3.99,1.13,8.59,2.18,8.44,7.52-.15,5.35-4.35,6.45-8.79,6.63-16.85,.68-28.22,10.14-37.49,23.15-20.97,29.45-47.69,50.95-82.91,61.38-25.19,7.46-41.31,28.02-60.63,43.91-3.11,2.56-6.16,5.21-9.23,7.82-3.38,7.58-10.42,9.48-17.53,11.26-1.93-.65-3.04-1.89-2.87-4.04,6.17-10.94,17.65-16,26.81-23.49,16.86-13.78,30.44-31.81,51.6-40.21,5.37-2.13,10.71-4.46,16.19-6.22,33.18-10.7,56.05-34.13,75.93-61.19,8.53-11.61,19.4-18.61,31.67-20.1-10.72,.51-22.54,3.06-32.48,12.48-7.18,6.8-15.23,12.72-22.03,19.99-15.04,16.1-33.29,27.88-54.18,33.77-30.91,8.71-55.5,27.02-78.89,47.53-8.43,7.4-19.18,11.61-26.5,20.33Z"/><path class="cls-80" d="M464.43,663.34c1.27,26.08-.68,52.05-1.88,78.08-2.21,47.95-3.31,95.94-4.86,143.92-.2,6.18,.77,13.84-8.19,13.84-8.97,0-7.96-7.69-8.17-13.85-2.44-71.12-4.91-142.24-7.3-213.37-.15-4.52,.32-9.07,.51-13.61,2.67-7.04,.61-14.37,1.36-21.52,.28-2.64-1.09-7.11,4.56-5.18,2.46,3.17,2.32,6.94,2.53,10.66,2.32,40.04,1.71,80.16,3.3,120.19,1.06,26.81,.75,53.75,3.88,80.48,1.12,9.54-2.13,18.94-.5,27.48,.48-61.46,4.52-123.8,4.28-186.28-.05-13.45,1.88-27.13,2.14-40.75,.08-4.06,.04-8.48,4.91-10.43,5.2,3.25,2.29,7.86,2.3,12.16,0,6.05-1.63,12.27,1.12,18.17Z"/><path class="cls-60" d="M230.66,464.58c-38.9,2.34-77.58-3.05-116.44-3.17-33.87-.1-67.73-2.35-101.59-3.58C6.63,457.61-.01,457.67,0,449.6c.01-8.08,6.66-7.97,12.65-8.16,48.34-1.49,96.7-2.6,145.01-4.77,26.83-1.21,53.6-3.27,80.48-2.13,7.85,2.92,15.96,.77,23.94,1.2,3.01,.16,6.87-.7,5.42,4.65-3.51,2.84-7.74,2.42-11.86,2.68-37.16,2.32-74.39,1.9-111.57,3.08-38.87,1.24-77.73,2.77-108.28,3.31,54.11,1.12,116.48,5.05,178.98,4.43,11.84-.12,23.79,2.42,35.81,2.28,4.05-.05,8.48,.03,10.44,4.89-4.7,5.62-10.74,.9-16.06,2.03-4.68,.99-9.77-1.36-14.31,1.48Z"/><path class="cls-10" d="M434.48,243.19c-1.1-25.63,.75-51.15,1.9-76.74,2.28-50.36,3.39-100.77,4.98-151.16,.08-2.48-.02-4.97,.23-7.44C442.07,3.16,444.56,0,449.46,0c4.9,0,7.56,3.13,7.9,7.83,.59,8.24,.96,16.5,1.23,24.75,2.19,66.9,4.33,133.81,6.45,200.72,.05,1.63-.35,3.27-.55,4.91-3.06,7.81-.52,15.95-1.43,23.88-.3,2.63,1.23,7.09-4.46,5.46-2.81-3.52-2.39-7.76-2.65-11.87-2.39-37.16-2.3-74.39-2.96-111.6-.69-39.12-3.29-78.18-3.41-117.32-.24,63.72-5.36,127.33-4.5,191.09,.16,11.82-2.31,23.8-2.22,35.81,.03,3.72-.38,7.54-4.15,9.78-6.97-5.59,.39-14.16-4.23-20.24Z"/><path class="cls-95" d="M648.39,434.54c43.44-2.33,86.69,2.84,130.07,3.25,36.35,.35,72.68,2.47,109.02,3.71,5.78,.2,11.47,.87,11.46,8.1-.01,7.14-5.6,8-11.43,8.18-49.16,1.5-98.33,2.63-147.46,4.85-27.24,1.23-54.43,3.17-81.71,1.95-6.23-4.21-14.47,1.97-20.37-3.94,2.69-4.94,7.56-4.28,12-4.59,35.84-2.49,71.76-2.29,107.66-3.03,37.96-.78,75.89-2.93,113.86-3.23-63.02-.3-125.92-5.2-188.99-4.91-16.53,.08-33.77,.34-50.31-3.78-3.27-3.57-.75-4.52,2.37-5.09,4.58-.84,9.47,1.31,13.85-1.47Z"/><path class="cls-41" d="M198.44,355.11c-1.1,.98-2.2,1.97-3.3,2.95-25.85-8.49-49.56-21.9-74.54-32.43-24.26-10.22-47.96-21.75-71.9-32.72-2.99-1.37-5.95-2.82-8.91-4.24-4.73-2.26-7.22-5.98-5.27-11.03,2.33-6.03,7.64-5.8,12.56-4.04,13.16,4.71,26.34,9.43,39.25,14.77,44.78,18.53,91.15,32.94,135.63,52.25,7.39,3.21,15.41,4.95,23.13,7.38,11.62,2.99,23.52,5.16,34.1,11.56-7.47-6.33-18.07-7.78-23.73-16.49l-2.31-1.22c-2.09-2.76-.49-4.32,1.83-5.64,10.98-.93,17.6,7.89,26.38,11.88,4.32,1.96,7.64,6.69,13.35,4.54,2.27-.58,4.6-1.65,6.63,.56,1.27,10.59-3.83,17.66-12.58,22.71-1.93-.14-3.63-.9-5.27-1.86-8.3-6.64-18.82-8.47-28.33-12.15-56.61-21.93-113.74-42.53-170.45-64.21-11.5-4.39-23.06-8.58-33.16-12.54,46.8,20.21,94.46,41.97,141.99,64.02,2.47,1.14,5.77,1.91,4.88,5.95Z"/><path class="cls-15" d="M188.49,631.14c1.42,2.23,3.77,2.37,6.06,2.68-25.64,10.92-45.22,29.79-64.48,49.1-13.53,13.56-29.78,18.86-48.63,14.7-4.2-.93-9.72-1.78-9.56-7.89,.16-6.23,5.34-6.7,9.93-6.82,16.63-.45,27.38-10.53,36.14-22.85,21.26-29.91,48.45-51.32,83.92-61.99,7.39-2.22,14.17-6.46,21.23-9.76,1.96,.6,3.17,1.86,3.49,3.92-3.32,8.4-11.55,10.93-18.62,12.98-38.11,11.04-65.43,35.85-88.56,66.63-9.04,12.02-20.12,20.93-33.58,18.88,15.88,1.26,31.24-5.92,44.27-19.34,13.26-13.65,26.28-27.65,43.46-36.67,4.66-2.45,9.04-6.21,14.93-3.58Z"/><path class="cls-2" d="M702.96,91.45c-1.18-1.95-3.11-2.3-5.15-2.41-18.25,.2-27.67,12.19-34.59,26.74-5.5,11.56-9.84,23.68-15.46,35.2-9.08,18.6-22.99,33.35-38.75,46.27-16.71,13.7-28.54,30.87-37.99,49.95-5.15,10.39-11.16,20.31-17.08,30.23-2.71,4.55-4.9,10.96-12.3,10.6l-5.42-.24c1.35-8.43,8.39-13.19,12.72-19.7,3.33-5.65,7.34-11.02,9.87-17.01,12.17-28.85,32.27-51.19,55.98-71,21.31-17.81,29.67-43.78,40.58-68.03,8.33-18.51,21.29-31.06,42.55-32.76,3.36-.27,6.96-.14,8.67,3.33,1.96,3.98,.77,7.19-3.62,8.83Z"/><path class="cls-88" d="M255.62,337.68c-1.79,.81-2.38,2.34-2.46,4.17-22.08-7.23-40.66-20.54-54.87-38.07-23.47-28.95-53.28-47.3-87.31-60.56-19.89-7.75-32.93-26.69-31.79-43.18,.24-3.43,.5-6.83,4.38-8.03,3.74-1.15,6.43,.36,7.78,4.09-1.93,1.17-2.26,3.08-2.35,5.1,.91,17.54,11.14,28.06,26.37,34.61,16.27,6.99,32.91,13.19,47.92,22.85,11.91,7.67,22.12,17.28,31.03,28.15,14.31,17.46,30.61,32.17,51.47,41.52,4.02,1.8,9.9,2.78,9.83,9.36Z"/><path class="cls-87" d="M638.19,461.73c6.63,1.56,14.03-2.32,20.15,2.84-6.45,.09-12.9,.19-19.36,.28-8.67-2.16-8.13,3.82-8.19,9.27,.57,2.71,1.96,5.37,.58,8.21-2.25,2.81-4.96,5.47-3.3,9.62,.93,3.1,3.88,4.79,5.27,7.56-6.09,1.97-10.87,5.31-12.53,11.93-.14,2.08-1.2,3.62-2.86,4.8-2.78,1.57-5.01,1.34-6.32-1.93-1.8-7.78,2.45-14.47,4.54-21.32,7.2-23.64,7.48-47.57,4.86-71.77,.21-1.29,.69-2.49,1.42-3.58,3.06-2.43,5.75-.81,8.44,.76,2.72,2.24,2.88,5.93,4.85,8.62-.6,2.31-5.08,2.95-3.42,5.77,2.03,3.46,5.86,1.7,9.02,1.51,2.35,.07,4.71,.15,7.06,.22-4.55,5.84-12.79-.77-17.32,5.13,3.08,2.78,6.89,2.34,10.58,2.4,32.56,.58,65.12,1.32,97.66,2.51,1.24,.05,2.48-.02,3.71,.09,3.28,.27,7.27,.21,7.68,4.45,.44,4.49-3.5,4.96-6.83,5.24-4.92,.42-9.75,1.57-14.76,1.39-26.83-.99-53.6,1.33-80.42,1.39-3.73,0-9.64-2.83-10.5,4.59Z"/><path class="cls-52" d="M267.88,439.72c-5.11-5.1-11.5-1.63-17.24-2.57-4.21-.68-8.99,1.46-12.5-2.61,8.15-1.78,16.83,1.89,24.74-2.41,1.76-2.39,3.52-4.79,5.28-7.18-.2-2.58,.5-4.75,2.77-6.24,1.91-.63,3.68-.41,5.31,.82,.79,1.06,1.3,2.23,1.58,3.52-1.66,18.2-2.2,36.4,.13,54.58-.17,1.26-.6,2.45-1.26,3.54-2.27,2.35-4.33,1.03-6.4-.35-2.27-2.54-4.14-5.31-4.63-8.81,0-.81,.04-1.62,.12-2.43-3.33-4.54-8.99-2.64-13.19-4.77-7.31-.08-14.62-.15-21.93-.23,9.58-5.48,20.08-1.18,30.03-2.82-.19-7.1-5.75-4.61-9.17-4.65-27.22-.35-54.42-2.26-81.66-1.38-5.4,.17-10.71-.34-15.99-1.39-2.95-.58-6.03-1.42-5.66-5.18,.35-3.59,3.51-4.43,6.46-4.35,10.33,.27,20.56-1.74,30.87-1.41,24.35,.78,48.64-1.97,72.99-1.34,3.3,.09,6.65,.08,9.36-2.33Z"/><path class="cls-70" d="M464.43,663.34c-5.18-9.54-1.11-19.95-2.8-29.82-6.33,.84-4.58,5.93-4.6,9.55-.21,31.61-1.79,63.19-2.59,94.78-.04,1.64,.06,3.3-.08,4.93-.31,3.63-.03,8.26-5.21,8.1-4.22-.13-4.54-4.23-4.49-7.53,.12-8.18-1.12-16.43,.88-24.53,4.55-3.57,3.96-8.66,3.96-13.59,0-20.2-.01-40.39,0-60.59-.03,19.86,.05,39.72-.07,59.58-.02,4,.99,8.36-2.57,11.65-6.22-1.66-3.48-6.79-3.39-10.22,.57-21.37-2.15-42.66-1.47-64.02,.12-3.67,.34-7.46-2.41-10.53-6.69,8.16,1.56,19.07-5.04,27.24-.09-6.5-.18-12.99-.27-19.49,1.46-6.46-1.51-8.58-7.54-7.69-3.69,.66-7.48,2.49-10.78-1.02-.94-2.29-.69-4.41,.95-6.31l.04-.86c2.73-2.36,6.01-2.41,9.29-2.02,15.5,1.85,30.98,1.86,46.47,0,3.28-.39,6.56-.34,9.29,2v.96c2.26,4.79,3.41,9.62,.45,14.56-4.46,2.76-5.77-6.46-10.48-2.76-.74,.78-1.49,1.57-2.23,2.35-4.24-.21-2.89,4.29-4.97,5.9-.11,6.45-.22,12.91-.32,19.36Z"/><path class="cls-4" d="M459.38,267.98c4.96-5.15,1.62-11.53,2.54-17.28,.67-4.21-1.48-8.98,2.57-12.5,.09,8.12,.19,16.25,.28,24.37-.76,6.39,3.63,5.47,7.5,5.28,3.31-.81,5.93,.27,7.98,2.93,.69,1.91,.51,3.7-.67,5.39-1.07,.79-2.26,1.28-3.57,1.5-17.61-2.21-35.18-.99-52.76,.45-1.27-.26-2.44-.78-3.5-1.51-1.38-1.47-1.74-3.21-1.32-5.14,1.79-3.44,4.82-5.06,8.51-5.7,10.66,4.6,7.28-3.28,7.26-8.17,.09-4.8,.19-9.6,.28-14.4,5.12,6.07,1.31,13.4,2.81,19.98,6.57-.67,4.53-5.88,4.65-9.48,.97-30.87,1.25-61.76,2.58-92.62,.11-2.47-.1-4.97,.3-7.41,.49-2.99,1.53-5.9,5.31-5.42,2.87,.36,4.02,2.91,4.02,5.44-.02,9.9,1.68,19.74,1.42,29.6-.64,24.75,1.94,49.41,1.41,74.15-.08,3.68-.36,7.49,2.41,10.56Z"/><path class="cls-42" d="M226.09,591.5c-1-1.06-2-2.12-3.01-3.19,18.37-16.06,36.74-32.11,55.23-48.28-5.58-2.39-9.48,3.65-14.56,1.92-1.07-.93-2.13-1.86-3.2-2.78,2.49-4.67,6.91-6.76,11.64-7.84,5.14-1.17,8.3-4.54,11.29-8.36,1.74-.82,3.55-.96,5.42-.54,8.02,5.91,13.94,12.94,12.59,23.81-2.05,2.72-4.8,3.85-8.17,3.52-5.03-5.93-9.38-2.07-13.7,1.04-14.4,10.36-26.49,23.41-40.19,34.58-3.87,3.16-6.66,8.99-13.35,6.11Z"/><path class="cls-3" d="M387.58,237.99c5.9,10.18,7.54,21.22,7.44,35.88-5.96-10.89-10.28-19.06-12.69-28.13,9.13,2.42,2.89-5.58,5.24-7.75Z"/><path class="cls-2" d="M357.77,617.31c.64-2.88,1.54-6.01,5.29-4.9,2.27,.67,1.98,3.4,1.02,5.18-2.37,4.39-.2,11.04-6.61,13.42-1.39-4.6,7.1-8.98,.3-13.69Z"/><path class="cls-80" d="M464.75,643.98c-.15-2.41-.44-4.81-.41-7.22,.02-1.94,.07-4.8,2.61-4.54,3.1,.32,2.28,3.65,2.77,5.85-.2,1.97-.41,3.95-.62,5.93-1.45,0-2.9-.02-4.35-.03Z"/><path class="cls-60" d="M252.59,464.81c3.96-.1,7.97-.62,11.87-.17,3.19,.36,3.65,2.54,1.32,4.94-2.88-.16-5.75-.32-8.63-.49-1.52-1.43-3.04-2.85-4.56-4.28Z"/><path class="cls-16" d="M300.46,546.14c-1.37-8.86-6.35-15.7-12.32-21.98-2.43-2.16-4.63-4.46-5.16-7.86-.52-8.11-5.54-14.9-6.68-22.9-.57-4.02-1.62-7.88-.35-11.9-4.21-20.53-3.83-41.07-.27-61.63-2.62-12.72,3.83-23.61,7.08-35.15,.35-4.11,1.62-7.69,5.62-9.69,5.9-6.22,10.28-13.29,12.11-21.77,.03-1.92,1.04-2.9,2.93-3.02,6.29-7.61,12.58-15.21,18.86-22.82-.17-3.56,1.52-5.25,5.09-5.08,6.46-3.4,11.24-8.56,15.17-14.6,3.22-3.96,6.09-8.48,12.3-7.63,7.67-3.7,16.48-5.32,22.37-12.25,1.01-2.73,3.15-4.06,5.83-4.73,8.13,.26,14.17-6.16,22.18-6.8,4.91-.39,9.7-2.02,14.66-.52,19.74-2.75,39.49-4.71,59.23-.04,9.5-1.86,18.48,.5,26.81,4.54,3.44,1.67,6.66,2.36,10.24,2.61,3.44,.61,5.8,2.83,7.96,5.35,5.45,6.01,12.31,9.62,20.05,11.73,2.68-.4,4.2,.78,4.65,3.42,8.75,5.7,14.6,15,24.27,19.57,1.94,.02,2.91,.99,2.93,2.93,6.54,8.09,13.08,16.18,19.62,24.27,1.9-.02,3.31,.92,4.53,2.25,6.09,9.01,10.22,19.04,14.88,28.81,.43,1.11,.69,2.26,.84,3.44,2.53,10.92,9.81,20.8,7.16,32.85,6.32,31.87,2.74,62.75-9.12,92.85-.72,1.83-.4,4.08-.56,6.14,.4,2.97,.28,5.76-2.56,7.63-6,6.26-8.63,14.39-12.26,21.96,.86,2.56-.09,3.43-2.63,2.82-6.62,8.09-13.23,16.18-19.85,24.27-.07,1.88-1.05,2.86-2.93,2.92-8.08,6.6-16.17,13.2-24.25,19.79-.29,1.62-1.21,2.54-2.88,2.65-7.29,4.14-16.3,5.2-21.95,12.28-2.55,3.35-5.88,4.3-9.87,3.16-10.74,2.98-21.47,5.97-32.2,8.95-21.68,4.38-43.36,4.4-65.05,.02-10.81-2.95-21.62-5.9-32.43-8.84-4.24,1.94-7.27,.3-9.67-3.25-5.42-6.11-12.33-9.66-20.08-11.79-2.64,.41-4.12-.79-4.63-3.34-8.74-5.79-14.59-15.17-24.36-19.69-1.85-.04-2.8-.99-2.86-2.84-5.22-9.23-13.31-16.12-19.77-24.34-1.63-.21-2.53-1.13-2.69-2.77Z"/><path class="cls-35" d="M556.37,601.03c.73-4.99,2.47-9.21,7.05-2.88,26.8,37.03,57.93,71.14,70.27,117.33,5.6,20.99,23.86,35.08,38.78,50.43,9.25,9.51,18.1,19.34,19.89,33.28,.93,7.22,2.38,14.62-4.28,23.36,2.65-24.94-13.2-37.54-28.26-48.34-28.42-20.38-46.17-46.95-56.72-79.77-4.22-13.14-11.92-25.05-21.97-35.25-13.3-13.49-25.92-27.65-36.47-43.52-2.73-4.11-5.93-7.98,1.97-9.82,13.01,7.73,19.92,21.4,30.44,31.6,4.68,4.53,8.7,9.92,13.25,14.72,7.43,10.83,16.56,20.63,18.39,27.27-2.41-7.21-11.32-18.13-19.32-29.59-9.9-10.99-19.75-22.05-28.09-34.27-2.85-4.18-6.57-8.61-4.91-14.55Z"/><path class="cls-14" d="M471.96,635.72c7.39-13.09,6.31,2.44,9.7,2.87,6.68,4.36,6.41,12.09,8.57,18.48,5.88,17.44,12.58,34.65,16.37,52.73,1.13,5.53,2.29,11.07,2.59,16.73-.49-9.89-2.61-19.5-5.02-29.08-7.51-19.35-12.48-39.39-16.23-59.72-.75-4.09-3.75-9.96,3.84-11.78,4.99,.45,7.23,3.25,7.36,8.19,.64,23.89,12.97,44.82,17.39,67.82,1.18,6.11,2.16,12.06,2.43,18.23,1.07,24.29-3.12,48.82,2.64,72.88,3.44,14.35,9.82,27.68,15.63,41.2,7.46,17.37,5.73,33.83-6.63,49.23,12.7-30.67-12.17-50.19-21.34-74.11-6.5-16.96-13.65-33.86-12.28-52.08,2.6-34.57-3.78-67.03-18.36-98.2-3.46-7.4-.87-16.61-6.68-23.4Z"/><path class="cls-56" d="M583.32,576.56c2.01-8.14,5.56-3.74,8.31-.78,40.45,43.51,80.8,87.13,121.23,130.66,14.03,15.1,28.26,30.01,42.32,45.09,2.61,2.8,6.51,4.92,6.87,11.58-11.99-6.89-20.2-15.91-28.87-24.01-47.35-44.25-94.28-88.96-141.42-133.44-5.69-5.37-11.9-10.19-17.62-15.53-3.42-3.19-2.86-5.75,2.13-6.52,5.01-1.29,7.64,2.5,10.38,5.32,16.97,17.52,36.28,32.6,52.72,50.66,5.47,5.4,10.93,10.8,17.19,17.25-6.04-6.64-11.72-11.8-17-17.36-18.27-16.73-33.86-36.04-51.41-53.46-2.57-2.55-5.59-5.1-4.83-9.45Z"/><path class="cls-30" d="M526.38,613.35c9.65,6,8.94,17.35,12.48,26.13,13.76,34.06,25.74,68.83,38.72,103.21,12.86,34.06,26.17,67.95,39.15,101.96,1.64,4.3,2.47,8.91,2.39,13.83-10.39-10.59-14.28-24.57-20.08-37.25-25.23-55.14-49.48-110.73-74.28-166.06-5.15-11.49-14.01-21.52-13.16-35.23,5.37-1.45,7.78,2.35,9.4,6.08,13.52,31.23,28.46,61.87,36.08,83.24-7.86-19.33-19.82-49.3-31.71-79.29-2-5.06-8.44-11.7,1-16.62Z"/><path class="cls-48" d="M526.38,613.35c-4.92,6,.39,10.9,2.2,15.76,11.19,29.97,22.85,59.77,34.3,89.65,.54,1.42,.52,3.05,1,6.09-8.76-8.51-10.45-18.98-14.7-27.95-10.21-21.57-19.29-43.68-29.02-65.48-1.95-4.36-2.89-9.75-8.55-11.46-3.2-3.76,1.92-3.87,2.59-5.92,2.81-2.55,6.32-2.9,9.87-3.16,.77,.83,1.54,1.65,2.31,2.48Z"/><path class="cls-43" d="M638.09,641.31c-20.6-19.23-41.2-38.47-61.81-57.7-1.04-2.49-2.09-4.98-3.13-7.47,.97-.97,1.95-1.94,2.93-2.92,2.42,1.11,4.83,2.23,7.24,3.34,19.29,20.54,38.58,41.09,57.87,61.63,.47,2.54-.57,3.58-3.11,3.12Z"/><path class="cls-94" d="M491.78,625.96c-4.06,7.3-.35,14.55,1.17,21.3,3.85,17.07,9.13,33.83,13.83,50.71,.65,4.43,3.96,9.4-2.49,12.4-7.55-23.93-15.09-47.85-22.64-71.78,1.74-4.85-2.89-9.85,.33-14.67,3.4,0,7.15-1.64,9.79,2.04Z"/><path class="cls-7" d="M595.93,548.95c.87-.94,1.75-1.88,2.63-2.82,1.58-.7,3.16-1.41,4.75-2.11,7.67,12.5,21.02,17.58,32.94,24.04,11.82,6.4,22.95,13.76,34.29,20.84,.45,2.25-.22,3.4-2.71,2.78-23.34-11.18-46.94-21.85-69.07-35.39-.94-2.45-1.88-4.9-2.82-7.35Z"/><path class="cls-98" d="M588.27,653.95c-14.72-15.31-28.86-31.12-41.65-48.09-1.64-2.31-1.89-4.73-.6-7.27,.96-.88,1.92-1.76,2.88-2.65,4-.51,4.88,3.55,7.47,5.1,8.67,17.93,23.06,31.68,34.76,47.39,1.77,3.25,1.47,5.43-2.86,5.53Z"/><path class="cls-36" d="M255.62,337.68c-20.08-12.61-42.55-21.89-57.54-41.57-14.94-19.61-33-35.45-55.77-45.46-8.24-3.62-16.31-7.84-24.85-10.5-16.94-5.28-26.27-17.59-32.35-33.08-.8-2.03-4.26-8.55,3.89-5.86,6.32,16.14,19.14,23.79,35.25,27.64,32.86,7.84,62.72,20.99,84.64,48.26,18.78,23.36,46.22,33.27,72.1,45.61,6.62,3.16,12.89,7.14,19.01,11.21,3.74,2.48,6.71,5.84,.24,9-2.59,.97-5.02,.07-7.11-1.17-17.1-10.16-36.04-16.55-53.43-26.1-9.14-7.32-20.27-12.07-25.27-18.7,4.61,5.51,13.7,11.34,22.72,17.28,15.88,10.38,34.76,15.41,49.56,27.6,4.02,3.31,11.22,5.03,9.06,12.92-3.74,4.78-6.77,1.64-10.42-.51-9.77-5.75-18.34-13.72-29.73-16.54Z"/><path class="cls-84" d="M342.6,303.16c-2.97,1.22-5.39,1.33-7.22-2.11-9.01-16.94-22.56-30.39-34.68-44.95-13.89-16.68-21.69-36.34-28.22-56.87-8.34-26.19-25.27-46.84-45.17-65.42-9.63-8.99-18.23-18.99-20.54-32.97-1.26-7.6-.96-14.62,3.17-21.95-1.36,22.83,14.01,35.01,29.35,46.54,27.18,20.42,46.45,45.84,56.41,78.75,6.48,21.43,22.69,36.98,37.47,52.99,7.87,8.52,15.73,16.96,21.29,27.21,1.88,3.47,5.24,7.67-2.17,9.08-11.5-6.92-18.1-18.69-27.06-28.07-11.9-12.46-23.29-25.68-32.07-40.75-2.9-4.85-2.8-10.95-7.82-17.04,4.35,7.6,5.27,14.56,9.55,20.06,13.06,21.88,32.5,39.04,45.26,61.12,2.55,4.42,6.99,8.67,2.48,14.38Z"/><path class="cls-59" d="M426.94,265.76c-1.21,3.28-3.66,4.63-7.04,4.58-2.67-.61-4.42-2.44-4.88-4.93-4.17-22.98-15.5-43.76-20.35-66.5-1.13-10.04-3.87-19.89-3.51-30.14-1.08,11.1-.2,21.96,3.66,32.47,4.9,20.27,14.06,39.41,15.79,60.5-1.24,4.92,1.7,12.94-8.36,11.33-5.02-40.23-28.33-77.28-21.93-119.34,5.1-33.54-7.68-63.08-19.04-92.77-6.48-16.93-4.41-30.84,7.38-44.74-11.56,30.03,11.6,49.74,20.87,73.46,6.44,16.47,13.76,32.79,12.52,50.75-2.42,35.17,2.94,68.51,18.42,100.4,3.66,7.55,2.66,17.01,6.46,24.93Z"/><path class="cls-97" d="M315.46,322.67c-3.36,10.12-7.14,1.81-8.99-.41-11.94-14.3-25.5-27.04-38.2-40.6-15.78-16.85-30.98-34.25-46.73-51.14-27.03-28.98-54.31-57.73-81.43-86.63-1.53-1.63-4.29-3.07-1.49-7.65,9.55,8.32,19.2,16.18,28.24,24.69,46.91,44.13,93.65,88.45,140.51,132.63,5.39,5.08,11.26,9.66,16.73,14.66,3.38,3.09,4.79,6.21-1.57,7.47-5.95,.68-8.72-4.09-12.13-7.41-21.33-20.74-43.88-40.23-59.35-57.18,18.03,16.19,37.77,40.26,59.84,62.07,2.55,2.52,5.71,5.05,4.57,9.49Z"/><path class="cls-20" d="M374.84,283.05c-6.14,2.85-7.51-3.14-8.61-5.96-9.86-25.5-19.01-51.28-28.64-76.87-13.24-35.2-26.81-70.28-40.06-105.48-6.68-17.74-12.96-35.63-18.33-53.91,10.23,6.17,11.47,17.52,15.75,26.71,22.64,48.57,44.38,97.55,66.54,146.35,7.44,16.38,15.55,32.46,22.61,49.01,1.98,4.64,6.84,10.4,.28,15.69-6.48-.47-7.15-6.02-9.03-10.43-8.25-19.39-17.15-38.5-25.3-57.93-3.74-10.8-8.26-21.29-13.24-31.58,6.57,11.91,9.64,25.29,15.65,37.45,6.94,17.27,14.02,34.47,20.77,51.8,1.87,4.79,5.4,9.66,1.61,15.16Z"/><path class="cls-8" d="M315.46,322.67c-25.64-27.23-51.29-54.46-76.93-81.69,.77-.8,1.55-1.61,2.32-2.41,27.23,25.71,54.46,51.42,81.68,77.13,1.5,2.3,5.4,2.85,4.84,6.65-1.69,1.69-3.39,3.38-5.08,5.08-3.81,.61-4.3-3.53-6.83-4.76Z"/><path class="cls-27" d="M295.28,223.5c12.62,19.56,29,35.98,44.33,53.28,4.62,5.21,8.46,11.1,12.66,16.68,.86,2.23,1.71,4.45,2.57,6.67-4.1,2.54-8.2,5.08-12.3,7.62,.02-1.53,.04-3.06,.06-4.59-1.61-12.93-10.58-21.78-18.01-31.26-11.1-14.16-22.97-27.72-31.73-43.57-1.65-2.84-1.81-4.93,2.42-4.83Z"/><path class="cls-54" d="M352.59,208.39c8.92,22.01,20.28,42.97,27.99,65.51,.61,1.78,2.51,3.13,3.8,4.68,.15,.63,.35,1.24,.6,1.83,1.44,2.93-1.08,3.66-2.7,4.89-1.69,.85-3.38,1.71-5.06,2.56-.79-1.61-1.58-3.21-2.37-4.82-8.31-22.32-16.62-44.64-24.94-66.97-.83-3.17-3.37-6.93,2.68-7.69Z"/><path class="cls-46" d="M240.49,312.91c19.8,10.23,41.28,17.12,59.75,29.99,1.06,2.45,2.11,4.89,3.17,7.34-.97,1-1.95,2-2.92,3.01-1.58,.49-3.15,.99-4.72,1.48-9.13-12.81-23.63-17.88-36.46-25.37-7.92-4.63-17.3-6.74-23.85-13.75-.1-4.23,1.84-4.63,5.03-2.7Z"/><path class="cls-4" d="M382.28,285.31c.9-1.63,1.8-3.26,2.7-4.89,5.76-2.45,11.52-4.9,17.28-7.35,8.45-1.34,3.53-8.39,5.36-12.55,7.14,2.24,4.44,12.29,11.55,14.54l.71,.76c-12.53,3.16-25.07,6.33-37.6,9.49Z"/><path class="cls-100" d="M226.09,591.5c12.67-6.98,22.08-17.92,32.66-27.37,8.26-7.38,16.85-14.21,25.96-20.42,5.56-3.79,8.37-2.37,7.95,4.52-8.28,11.96-21.1,19.05-31.25,29.03-4.62,4.54-9.83,8.62-14.58,13.12-10.69,7.67-20.66,16.52-27.47,18.31,7.19-2.71,18.78-10.53,29.81-19.27,11.96-10.72,23.82-21.58,38-29.4,3.37-1.86,6.21-5.87,10.98-3.48,3.5,.87,9.85,2.34,3.53,6.2-23.56,14.41-41.91,35.6-65.75,49.51-14.87,8.68-31.69,12.45-47.46,18.89-23.84,8.42-40.53,26.28-57.51,43.69-8.89,9.11-18.96,15.94-31.73,17.75-6.79,.96-13.83,1.79-20.68-3.59,23.64,2.81,35-13.55,46.53-28.79,20.99-27.75,47.15-47.54,80.96-57.24,7.15-2.05,14.52-5.62,20.03-11.46Z"/><path class="cls-58" d="M355.08,603.68c.77,2.25,3.1,4.44,1.22,6.9-15.54,20.41-24.06,44.86-38.2,66.1-7.43,11.17-16.63,21.01-27.01,28.85-26.95,20.35-40.63,48.91-52.42,78.97-6.98,17.8-21.35,28.97-38.38,29.26,1.47-7.14,9.26-5.86,13.15-10.02,8.2-8.77,12.92-19.3,15.55-30.5,8.14-34.71,24.59-64.15,52.19-87.13,21.48-17.89,29.14-44.28,41.37-67.87,3.39-6.54,7.12-12.94,11.17-19.1,2.41-3.67,5.73-6.92,9.04-.43,1.23,3.07-.18,5.78-1.58,8.22-13.5,23.58-22.52,49.59-38.77,71.67-3.69,4.38-7.94,8.24-13.83,14.24,6.47-4.17,9.5-8.05,12.41-12.06,16.15-21.5,26.39-46.58,41.71-68.55,2.86-4.1,4-11.93,12.37-8.55Z"/><path class="cls-99" d="M322.7,583.62c8.46,2.31,3,5.77,.41,8.25-16.39,15.7-32.85,31.35-49.49,46.79-16.92,15.7-34.19,31.02-51.1,46.72-26,24.13-51.82,48.47-77.78,72.65-1.89,1.76-3.33,5.12-8.74,2.51,10.53-11.76,20.48-23.36,30.95-34.48,44.42-47.17,89-94.19,133.46-141.32,3.1-3.28,5.45-7.27,8.55-10.55,3.22-3.41,5.75-2.85,6.48,2.16-5.2,14.44-17.91,23-27.11,34.28-4.89,5.99-11.16,10.89-16.31,16.77-8.94,7.84-16.84,16.76-25.43,24.96,8.96-8.63,17.52-17.69,26.79-26.01,12.79-14.5,28.63-25.82,41.73-40.01,1.88-2.04,4.31-3.96,7.61-2.71Z"/><path class="cls-86" d="M384.58,620.67c6.04,4.89,1.77,10.23-.16,14.6-13.59,30.68-27.62,61.16-41.53,91.7-18.2,39.96-36.5,79.88-54.48,119.94-2.04,4.54-3.81,8.8-10.44,13.79,4.99-20.85,13.21-37.55,19.54-54.84,15.03-41.12,30.21-82.19,45.73-123.13,5.22-13.76,11.36-27.15,14.32-41.67,7.59-7.75,5.3-20.79,14.75-27.55,5.72,2.51,4.79,7.29,3.17,11.45-7.56,19.32-13.17,39.45-23.7,57.53-3.97,12.7-9.23,24.95-12.58,33.81,1.4-7.07,8.79-15.98,10.43-27.06,9.1-20.08,17.84-40.32,26.85-60.43,1.61-3.58,2.94-7.89,8.1-8.14Z"/><path class="cls-11" d="M355.08,603.68c-12.69,8.24-17.32,22.36-24.5,34.45-8.99,15.12-16.95,30.84-27.98,44.68-4.4,.28-3.72-2.03-2.36-4.67,17.01-24.96,26.11-54.15,42.54-79.42,2.46-.98,4.92-1.96,7.37-2.95,1.54,1.11,3.09,2.22,4.63,3.33,.1,1.53,.21,3.05,.31,4.58Z"/><path class="cls-18" d="M384.58,620.67c-10.69,23.31-21.37,46.62-32.06,69.94-6.02-.75-3.43-4.47-2.61-7.57,7.08-18.22,14.32-36.38,21.14-54.69,1.73-4.65,5.58-9.51,1.26-14.84,.85-.87,1.7-1.74,2.54-2.61,3.22,1.08,6.44,2.16,9.67,3.24,2.27,2.16,1.45,4.34,.06,6.52Z"/><path class="cls-73" d="M322.7,583.62c-15.9,14.88-31.79,29.76-47.69,44.63-3.34,2.31-5.01,1.46-4.96-2.63,15.12-16.43,30.25-32.85,45.38-49.28,2.5-1.03,4.99-2.06,7.49-3.1,.95,.94,1.9,1.89,2.86,2.83-1.02,2.51-2.05,5.03-3.08,7.54Z"/><path class="cls-85" d="M298.16,556.54c-17.59,9.17-31.9,22.82-47.48,34.74-3.17,1.6-5.45,1.5-5.52-2.87,15.41-13.9,29.82-28.97,47.5-40.19,2.6-.7,5.2-1.39,7.8-2.09,.9,.92,1.79,1.84,2.69,2.77,.58,4.01-3.49,4.98-4.99,7.63Z"/><path class="cls-19" d="M479.22,270.53c-2.32-.89-4.64-1.78-6.95-2.68,7.23-14.81,8.63-31.48,8.61-46.89-.05-33.96,14.75-62.52,27.57-92.03,4.03-9.29,5.63-18.78,5.77-28.62,.26-18.95,1.57-37.79,4.82-56.47,2.13-12.25,10.09-19.81,21.36-25.09-15.52,19.11-11.85,40.4-9.39,62.06,3.21,28.29-.56,55.85-14.25,81.39-8.54,15.93-12.49,32.95-12.63,50.91-.14,17.72-2.73,35.21-4.66,52.76,2.1,6.89-.07,9.9-7.43,8.2-3.22-2.68-3.83-6.49-3.38-10.18,3.41-28.21,3.37-56.82,9.27-84.75-4.52,19.26-4.75,39.12-7.79,58.58-1.79,11.46,.11,24.34-10.91,32.79Z"/><path class="cls-72" d="M541.63,288.04c12.23-12.03,18.82-27.71,26.66-42.44,9.95-18.68,20.72-36.5,37.76-49.59,26.39-20.27,41.99-47.79,52.88-78.41,5.79-16.29,17.28-26.51,32.98-32.39,2.09-.78,8.44-4.25,5.9,3.83-17.47,6.63-24.77,21.59-28.25,37.94-7.09,33.41-22.53,61.4-48.94,83.18-22.56,18.6-31.25,45.82-44.13,70.47-3.6,6.89-7.75,13.5-11.59,20.27-3.32,5.87-6.09,4.13-8.73-.53-1.35-4.05,.83-7.41,2.67-10.45,9-14.91,14.93-31.3,22.94-46.67,7.83-10.36,12.41-23.16,18.39-27.32-5.4,4.12-11.15,15.63-17.99,26.32-8.83,15.21-14.77,32.09-25.99,45.89-3.02,3.72-4.94,10.21-12.16,7.59-2.74-1.95-2.63-4.8-2.41-7.68Z"/><path class="cls-83" d="M511.8,280.3c-3.29-10.98,4.66-19.13,8.38-27.67,19.62-45.01,40.74-89.37,61.09-134.06,10.17-22.33,19.9-44.86,29.61-67.39,1.81-4.2,4.03-7.78,8.48-12.13,1.26,13.14-5.68,22.5-9.17,32.23-14.46,40.32-30.79,79.96-45.99,120.02-10.57,27.86-20.3,56.05-30.69,83.98-1.45,3.9-1.36,11.14-9.36,7.73-3.68-4.96-.57-9.52,1.09-13.96,6.63-17.75,14.33-35.09,21.16-52.75,5.72-12.05,9.89-24.78,13.73-33.09-2.22,6.57-7.53,16.36-11.19,26.88-8.11,18.28-15.77,36.75-24.2,54.88-2.59,5.57-4.79,11.29-9.55,15.49-1.16,.66-2.29,.61-3.39-.15Z"/><path class="cls-64" d="M549.02,216.05c-8.29,22.32-16.57,44.64-24.86,66.95-.01,1.76-.02,3.52-.03,5.28-2.51-.94-5.01-1.88-7.52-2.82-1.51-1.4-4.16-2.19-2.77-5.15,10.91-23.89,21.82-47.78,32.74-71.68,5.97,.77,3.23,4.42,2.45,7.42Z"/><path class="cls-22" d="M584.27,243.73c-8.47,19.32-16.38,38.92-28.1,56.63-2.45,1.02-4.9,2.04-7.35,3.06-1.55-1.13-3.1-2.27-4.64-3.41-.05-1.43-.09-2.86-.14-4.29,13.04-8.55,18.12-22.76,25.11-35.56,3.69-6.76,6.54-13.99,11.54-19.98,2.77-.4,3.96,.78,3.58,3.55Z"/><path class="cls-4" d="M513.84,280.31c.92,1.72,1.85,3.44,2.77,5.15-12.5-3.23-24.99-6.45-37.49-9.68l.8-.87c3.58-2.81,7.64-2.56,11.77-1.82,5.43,.64,8.08-1.71,7.79-7.23,1.72,6.86,6.81,10.83,12.33,14.43,.68,.02,1.36,.02,2.04,0Z"/><path class="cls-61" d="M417.72,631.44c2.94-2.55,5.93-2.94,9.02-.26-6.6,15.46-8.38,32.39-8.58,48.38-.42,33.04-14.77,60.99-27.16,89.86-4.49,10.47-6.3,21.18-6.26,32.3,.05,18.61-1.62,37.03-4.89,55.32-1.86,10.42-9.81,18.84-25.3,24.19,22.18-19.14,16.18-40.42,13.51-61.48-4.07-32.05,2.2-62.43,17.83-90.58,6.7-12.06,8.33-24.96,8.76-38.02,.64-19.4,2.58-38.62,4.94-57.86,.64-5.19,2.24-7.63,7.45-7.31,3.64,3.04,3.94,7.36,3.39,11.37-3.47,25.29-3.58,50.93-8.12,76.11-1.12,6.19-4.21,11.58-5.92,18.74,11.26-28.22,9.53-57.48,14.77-85.52,1.05-5.6,.83-11.7,6.57-15.26Z"/><path class="cls-73" d="M417.72,631.44c-5.66,23.3-6.48,47.32-10.46,70.88-2.18,12.9-6.04,24.99-13.95,35.7,13.06-36.38,9.31-74.7,13.72-112.03,2.65-3.7,6.39-2.34,9.88-2.14,.27,2.53,.54,5.06,.81,7.59Z"/><path class="cls-53" d="M635.73,427.04c-5.06-.12-5.23-3.41-4.66-7.19,1.85-3.03,4.95-4.45,8.05-5.34,23.66-6.84,46.28-16.97,70.43-22.2,6.88-1.34,13.93-.15,21.46-1.59-11.98-.54-23.09,.57-33.91,4.37-18.4,5.4-36.6,11.49-55.24,15.94-6.14,1.46-12.94,4.11-17.59-3.33-.8-2.95-.42-5.61,1.96-7.75,18.32,2.35,34.7-5.41,51.44-10.48,24.34-7.38,48.49-11.11,74.17-7.69,23.73,3.15,46.16-5.17,68.25-13.35,11.01-4.08,21.23-10.2,33.57-10.99,11.62-.74,20.54,3.63,30.41,11.38-9.82,1.79-16.82-4.9-25.9-2.5-17.87,4.74-31.9,16.59-48.64,23.23-16.87,6.69-33.66,14.09-52.04,12.54-34.62-2.91-67.05,4.14-98.35,18.27-7.46,3.37-16.64,.86-23.42,6.69Z"/><path class="cls-76" d="M616.21,367.64c33.37-9.85,65.11-24.1,97.63-36.23,33.34-12.44,66.79-24.57,100.16-36.92,14.43-5.34,28.79-10.9,45.49-17.24-2.93,7.43-7.3,8.92-11.54,10.84-43.7,19.73-87.37,39.54-131.04,59.34-27.57,12.49-55.09,25.1-82.74,37.38-4.16,1.85-9.02,5.42-13.42-.11,1.05-7.34,7.7-7.93,12.7-10.06,28.69-12.24,57.01-25.32,85.84-37.25,1.18-1.33-1.74-2.36-.5-1.26,.6,.53,.66,1,.11,1.23-33.03,13.77-65.27,29.56-99.91,39.26-4.74-1.81-8.93-3.8-2.79-8.98Z"/><path class="cls-40" d="M618.45,374.88c34.7-13.49,69.41-26.97,104.11-40.46,.43,1.03,.87,2.05,1.3,3.08-34.37,15.73-68.74,31.47-103.11,47.2-.66,.24-1.32,.46-1.98,.66-2.96,1.21-3.81-1.39-5.27-2.9h0c-3.23-5.72,1.83-6.02,4.96-7.57Z"/><path class="cls-87" d="M618.45,374.88c-1.67,2.52-5.52,3.6-4.96,7.57-5.04-9.86-10.08-19.71-15.12-29.57,1.58-2.26,3.79-2.36,6.19-1.83,3.65,1.92,3.48,5.54,3.96,8.88,1.01,.92,2.01,1.84,3.02,2.76,.81,2.13,2.78,1.95,4.5,2.27,.05,.89,.1,1.78,.15,2.67-2.36,3.38-1.78,5.85,2.25,7.24Z"/><path class="cls-87" d="M613.49,382.45c1.76,.97,3.51,1.93,5.27,2.9,2.49,4.86,4.98,9.72,7.47,14.59-.21,2.59-.42,5.17-.63,7.75-.71,3.07,1.35,6.69-1.8,9.29l-.74,.56c-3.19-11.69-6.38-23.39-9.57-35.09Z"/><path class="cls-66" d="M265.66,472.01c3.24,1.25,4.57,3.76,4.67,7.08-2.01,4.23-6.07,5.62-10.04,6.57-26.37,6.26-50.84,19.03-69.72,21.27,13.44-2.01,33.92-9.89,54.97-15.68,9.24-2.54,18.48-4.88,27.73,0,1.13,1.86,1.24,3.68-.18,5.45-12.4,6.63-26.88,3.88-39.8,9.68-35.33,15.85-73.17,12.43-110.55,12.78-20.53,.2-38.84,9.82-57.28,17.59-17.79,7.5-34,6.71-49.66-5.05,2.33-3.97,5.44-.87,7.29-.12,14.47,5.85,27.4-.03,38.62-7.1,30.31-19.09,62.49-30.76,98.53-27.42,28.19,2.62,52.88-8.45,78.43-16.75,8.96-2.91,18-5.55,27.01-8.31Z"/><path class="cls-86" d="M282.91,524.21c3.23,5.89-1.6,7.86-5.27,8.48-6.25,1.05-11.15,5.03-17.09,6.49-44.35,16.7-88.68,33.47-133.06,50.09-28.54,10.69-57.16,21.17-88.31,32.69,3.85-8.3,9.2-9.5,14.14-11.72,33.96-15.29,67.74-30.97,101.7-46.25,28.34-12.75,56.87-25.06,85.25-37.7,8.63-3.84,17.06-8.14,25.61-12.16,4.06-1.91,8.21-4.65,12.24,.13-1.64,5.99-6.96,7.71-11.72,10.03-18.49,9-37.8,16.16-56.35,25.03-10.98,3.08-20.72,9.34-27.56,11.17,8.43-3.7,21.18-8.17,33.49-13.76,16.81-6.72,33.42-13.92,50.35-20.32,5.31-2.01,10.61-4.86,16.58-2.19Z"/><path class="cls-102" d="M208.61,546.68c22.95-11.29,47.52-19.09,69.51-32.43,.75,.12,1.48,.02,2.18-.28,2.96-1.38,3.72,1.11,4.93,2.8,.97,2.47,1.94,4.93,2.91,7.4-1.74,.02-3.48,.03-5.23,.04-22.26,8.34-44.52,16.68-66.78,25.02-2.96,.49-6.75,3.42-7.52-2.55Z"/><path class="cls-52" d="M285.23,516.77c-1.64-.93-3.29-1.87-4.93-2.8-2.41-5.75-4.81-11.51-7.22-17.26-.06-1.58-.13-3.17-.19-4.75-.43-3.55-.65-7.05,2.25-9.84l.8-.61c3.1,11.75,6.19,23.51,9.29,35.26Z"/><path class="cls-17" d="M608.53,359.94c-4.05-1.39-3.99-4.36-2.95-7.7,6.8-12.06,19.79-17.73,28.74-27.68,4.53-5.04,10.18-9.38,15.54-13.79,12.16-9.03,24.54-17.71,38.67-23.51-14.21,5.25-26.71,13.47-38.81,22.39-11.5,10.34-23.08,20.59-35.77,29.45-3.68,2.57-7.31,7.21-12.94,3.62-1.67-.03-3.33-.06-5-.08-.91-5.08,2.5-7.34,6.11-9.61,16.79-10.57,31.65-23.6,46.62-36.52,13.7-11.82,30.83-17.21,47.46-23.02,20.87-7.29,39.87-17.14,55.68-32.9,9.05-9.02,18.28-18.01,28.35-25.83,11.69-9.08,25.1-11.47,39.84-4.86-31.3-1.8-41.35,24.99-57.21,42.75-18.21,20.39-40.09,33.59-65.23,42.46-13.28,4.69-25.87,10.64-35.93,20.6-16.46,16.3-34.39,30.76-53.17,44.24Z"/><path class="cls-20" d="M576.2,315.38c-8.52-2.39-2.82-5.83-.3-8.21,25.83-24.34,51.78-48.55,77.72-72.77,27.44-25.61,54.85-51.25,82.39-76.76,7.87-7.29,16.1-14.18,24.17-21.25,.86,.88,1.72,1.75,2.58,2.63-8.2,9.32-16.13,18.88-24.64,27.9-33.16,35.13-66.63,69.98-99.73,105.16-15.53,16.51-30.39,33.66-45.87,50.23-2.06,2.2-5.72,10.4-9.05,.37-1.11-4.97,2.57-7.65,5.43-10.36,17.68-16.77,32.6-36.19,50.59-52.66,4.58-4.66,9.21-9.28,14.47-14.48-5.46,4.98-9.86,9.81-14.59,14.3-16.28,17.5-34.31,33.17-51.62,49.59-3.26,3.09-6.43,6.54-11.55,6.29Z"/><path class="cls-11" d="M641.27,260.93c-19.27,20.59-38.53,41.17-57.8,61.76-2.48,1.08-4.96,2.15-7.44,3.23-.98-.97-1.95-1.95-2.93-2.92,1.03-2.54,2.07-5.08,3.1-7.62,20.64-19.18,41.29-38.36,61.93-57.55,2.53-.47,3.57,.57,3.13,3.1Z"/><path class="cls-1" d="M601.01,342.72c18.2-8.32,31.59-23.14,47.22-34.94,1.79-1.36,3.85-1.52,4.9,.47,1.05,2-.65,3.51-2.28,4.66-14.02,14.34-28.74,27.88-45.26,39.34-2.4,.21-4.8,.43-7.2,.65-.91-.9-1.81-1.79-2.72-2.69-.28-3.98,3.78-4.83,5.36-7.48Z"/><path class="cls-49" d="M618.75,513.81c.69-.78,1.38-1.56,2.06-2.34,4.4,0,8.74,.25,12.6,2.72,75.34,34.18,150.67,68.36,226.01,102.54-.5,1.19-1,2.38-1.5,3.56-18.34-3.65-35.18-12.08-52.67-18.26-29.24-10.34-57.97-22.12-86.97-33.16-27.49-10.47-55.21-20.33-82.44-31.43-7.66-3.13-17.81-2.01-22.63-11.12,2.17-6.8,7.14-4.06,10.97-2.71,19.78,6.97,39.41,14.35,58.24,23.64,12.68,4.21,24.86,9.75,33.53,12.84-6.84-1.45-16.17-7.83-26.96-10.62-19.28-9.09-39.23-16.67-58.45-25.87-4.62-2.21-10.32-3.59-11.8-9.79Z"/><path class="cls-25" d="M682.96,549.14c-19.55-7.43-39.07-14.96-58.69-22.2-3.44-1.27-7.12-5.34-11.06-.63-.8-.72-1.6-1.43-2.4-2.15,.78-2.57-.12-5.7,2.56-7.63,1.79-.91,3.58-1.82,5.37-2.73,23.05,12.85,47.84,21.86,71.83,32.65-.72,6.06-4.5,3.45-7.62,2.68Z"/><path class="cls-13" d="M667.82,591.69c.9-.93,1.81-1.85,2.71-2.78,11.09,4.3,17.86,13.23,24.85,21.93l-1.95,2.44c-8.54-7.2-17.08-14.39-25.62-21.59Z"/><path class="cls-91" d="M270.35,419.9c-.73,1.68-1.46,3.37-2.19,5.05-24.97-5.38-50.5-6.67-75.76-9.94-16.73-2.16-31.26-9.63-45.78-16.82-18.07-8.94-36.52-14.15-56.73-13.59-16.52,.46-32.89-1.88-49.05-4.95-11.28-2.15-17.17-11.03-22.06-21.22,19.09,18.7,41.35,11.83,63.09,9.62,27.59-2.8,54.44,.61,79.16,13.68,17.21,9.09,35.09,13.03,54.41,13.5,15.99,.39,31.93,2.79,47.89,4.3,6.02-1.19,12.44-2.97,10.77,7.24-2.18,3.02-5.55,3.95-8.8,3.56-28.67-3.38-57.83-2.41-86.07-9.6-1.99-.51-3.88-1.35-5.76-2.18-1.56-.56-.86,2.11-.67,.47,.04-.31,.43-.35,1.18-.08,18.48,6.72,37.94,8.13,57.23,9.57,11.3,.84,21.93,4.05,32.87,6.1,2.94,.55,5.41,2.08,6.28,5.3Z"/><path class="cls-32" d="M198.44,355.11c-29.03-13.2-58.05-26.43-87.1-39.59-21.32-9.66-42.74-19.1-63.94-28.99-2.59-1.21-6.22-2.55-7.26-8.64,18.15,6.67,35.21,12.88,52.23,19.21,35.68,13.26,71.31,26.65,107.01,39.85,25.73,9.51,50.68,21.07,77.01,29.02,3.34,1.01,6.02,4.19,9,6.36-4.7,8.08-10.91,3.34-16.24,1.45-29.56-10.5-58.1-23.59-87.4-34.76-1.03-.39-1.93-1.48-3.2-.57-1.61-.41,0,2.07-.2,.43-.08-.68,.28-.94,1.03-.65,30.05,11.58,59.62,24.27,88.84,37.8,4.06,1.88,8.27,4.02,9.81,8.88-12.01,6.79-19.87-4.06-29.03-7.6-17.13-6.63-33.08-16.17-50.56-22.18Z"/><path class="cls-40" d="M278.04,384.89c-33.31-17.73-68.97-30.47-102.75-47.19,.37-.95,.74-1.9,1.1-2.85,17.55,6.61,35.11,13.18,52.64,19.86,15.76,6.01,31.52,12.04,47.19,18.3,3.4,1.36,6.27,1.62,9.18-.68,.99,.9,1.98,1.8,2.98,2.7-1.11,3.24-2.23,6.48-3.35,9.72-1.01,1.48-1.38,4.18-4.2,2.19-.93-.68-1.86-1.37-2.79-2.05Z"/><path class="cls-52" d="M280.83,386.95c1.4-.73,2.8-1.46,4.2-2.19-3.12,11.7-6.23,23.41-9.35,35.12l-.8-.75c-2.95-3.64-2.58-7.84-2.02-12.06,1.23-8.08-4.65-7.17-9.52-7.54,7.4-2.01,14.4-4.57,17.5-12.57Z"/><path class="cls-12" d="M631.22,481.46c-1.05-2.39-3.91-4.67-.43-7.33,26.22,5.44,52.9,7.37,79.43,10.48,13.87,1.63,26.67,7.95,38.73,14.82,26.11,14.86,54.58,17.16,83.63,17.14,12.43-.01,24.83,.35,35.41,8.07,5.33,3.89,10.54,8.09,13.36,18.1-21.6-19.25-44.76-13.75-67.69-11.27-30.97,3.35-59.69-4.69-86.64-19.24-11.03-5.95-22.97-7.06-34.63-7.65-19.77-1-39.42-2.69-59.05-5.06-5.24,.2-8.19-1.81-7.27-7.55,2.67-3.3,6.51-3.7,10.14-3.21,27.47,3.65,55.37,3.43,82.63,8.91-24.37-5-49.35-5.45-73.83-9.58-5.17-.87-10.89-.92-13.79-6.64Z"/><path class="cls-33" d="M446.99,718.05c-.17,10.19-1.06,20.42,1.06,31.18,5.96-2.43,3.69-7.15,4.01-10.65,2.89-32.42,2.21-64.93,2.5-97.42,.08-8.69,.21-8.69,7.08-7.64-.72,1.86-2,3.7-2.08,5.59-.97,23.05-2.82,46.12-2.38,69.15,.88,45.86-2.63,91.58-3.38,137.38-.24,14.71-.89,29.9-2.42,44.82-4.56-.43-4.38-2.88-4.29-4.71,1.36-26.03-1.62-51.94-2.88-77.85-2.05-42.08-1.07-84.19-2.72-126.22-.66-16.84-1.89-33.69-1.91-50.57,7.36,.91,4.72,6.73,4.78,10.64,.35,20.65,.25,41.3,.47,61.95,.04,3.99-1.25,8.34,2.07,11.81,.68,.54,.92,1.1,.72,1.67-.2,.58-.41,.87-.63,.87Z"/><path class="cls-96" d="M267.88,439.72c-1.06,7.29-6.85,4.58-10.76,4.67-32.58,.77-65.22-.94-97.73,2.47-3.1,.33-6.46-.53-10.25,2.61,7.14,4.49,14.17,4.78,21.33,4.8,29.75,.09,59.5,.2,89.25,.45,2.9,.02,7.51-1.49,7.59,3.66,.06,4.3-3.95,3.08-6.62,3.38-16.36-4.56-33.33-2.44-49.99-4.29-17.97-2-36.34-.68-54.53-.51-47.45,.43-94.7-4.4-142.11-4.97-1.92-.02-4.17,.37-5.32-2.09,.18-2.94,2.58-2.69,4.46-2.76,24.72-.89,49.47-1.22,74.15-2.66,42.48-2.47,85.03-1.36,127.48-2.93,17.66-.66,35.34-1.86,53.05-1.83Z"/><path class="cls-45" d="M459.38,267.98c-7.91-1.44-4.6-7.78-4.7-11.96-.71-32.56,.68-65.18-2.57-97.68-.27-2.69,.95-5.83-4.04-9.09-1.16,13.63-2.86,26.22-3.17,38.84-.58,23.94-.31,47.91-.55,71.86-.03,2.91,1.46,7.24-3.78,7.56-2.73,.17-2.99-2.27-3.29-4.33,4.55-16.37,2.25-33.34,4.25-50,2-16.72,.12-33.86,.61-50.8,1.44-49.45,3.21-98.88,4.88-148.32,.06-1.92-.36-4.17,2.15-5.27,2.93,.23,2.64,2.65,2.71,4.51,.9,24.72,1,49.49,2.71,74.15,2.95,42.48,1.08,85.04,2.88,127.48,.75,17.67,1.87,35.34,1.89,53.06Z"/><path class="cls-74" d="M638.19,461.73c-2.65-.36-6.72,.85-6.51-3.5,.24-5.05,4.84-3.47,7.74-3.5,28.48-.26,56.96-.5,85.44-.38,8.29,.04,16.03-1.94,23.99-3.17l.13-3.11c-12.61-1.09-25.2-2.8-37.83-3.12-23.1-.59-46.23-.24-69.34-.58-3.92-.06-9.69,2.54-10.74-4.7,49.52,1.83,99.08,1.78,148.59,3.02,34.55,.86,69.08,4.19,103.72,4.37,2.38,.01,4.98-.52,6.87,1.7,.22,3.01-2.01,3.14-4.03,3.23-19.77,.85-39.57,1.26-59.31,2.53-45.79,2.93-91.69,1.07-137.43,3.25-16.97,.81-34.52-1.08-51.29,3.97Z"/><path class="cls-98" d="M631.22,481.46c22.74,6.33,46.37,6.63,69.53,10.13,11.02,1.67,20.91,5.51,30.68,10.79-34.72-8.49-70.33-6.53-105.37-10.41-5.18-6.88-1.08-9.22,5.15-10.51Z"/><path class="cls-62" d="M623.8,416.98c.13-3.19-1.44-6.71,1.8-9.29,4.55,3.6,9.1,1.84,13.95,.46,19.4-5.53,38.89-10.74,58.35-16.07,4.55-.28,9.91-4.1,12.79,2.92-24.43,5.63-47.27,16.2-71.34,22.94-2.73,.76-5.52,1.29-8.28,1.92-2.42-.96-4.85-1.92-7.27-2.88Z"/><path class="cls-63" d="M629.8,448.04h76.34c-25.43,4.42-50.87,4.45-76.33,3.65,0-1.22,0-2.43,0-3.65Z"/><path class="cls-26" d="M272.85,407.06c4.13,3.44,2.11,7.92,2.03,12.07-1.51,.25-3.02,.51-4.53,.77-19.52-6.76-40.03-7.61-60.25-10.27-16.62-2.19-32.95-5.4-47.29-15.13,35.9,11.67,73.4,8.35,110.04,12.56Z"/><path class="cls-23" d="M275.14,482.11c-.02,3.45,1.28,7.2-2.25,9.84-18.8-2.32-35.6,5.74-53.04,10.33-16.24,4.28-32.38,8.82-49.64,7.35,34.55-6.59,66.25-22.08,100.12-30.55,1.6,1.01,3.21,2.02,4.81,3.02Z"/><path class="cls-81" d="M269.22,450.87h-88.82c0-.91-.01-1.81-.02-2.72h88.78l.06,2.72Z"/><path class="cls-75" d="M446.99,718.05c-.03-.85-.06-1.69-.08-2.54,0-28.53,0-57.05,0-86.02,6.41,1.15,5.15,4.68,5.15,7.15,0,23.89-.12,47.78-.33,71.67-.03,3.85,1.35,8.7-4.73,9.74Z"/><path class="cls-5" d="M491.68,273.09c-3.41,3.93-7.75,1.89-11.77,1.83-.23-1.47-.46-2.93-.69-4.4,5.49-10.52,6.03-22.15,7.64-33.57,3.31-23.42,3.02-47.62,15.43-69.21-8.59,34.66-6.31,70.31-10.61,105.35Z"/><path class="cls-44" d="M419.17,275.06c-13.94,3.17-6.67-10.51-11.55-14.54-5.2-19.8-10.4-39.6-15.61-59.4-1.48-4.23-1.35-8.34,.29-13.2,5.87,2.44,1.9,8.1,5.04,10.54,7.01,24.12,17.53,47.14,22.56,71.88-.24,1.57-.48,3.15-.72,4.72Z"/><path class="cls-55" d="M450.99,185.42v83.79c-.8,.03-1.59,.05-2.39,.08v-83.83l2.39-.04Z"/><path class="cls-38" d="M588.27,653.95c2.3-1.15,2.83-3.21,2.86-5.53,11.26,13.43,20.79,27.75,23.21,45.86-8.01-13.95-16.51-27.49-26.07-40.33Z"/><path class="cls-77" d="M504.3,710.37c4.03-3.49,1.41-8.32,2.49-12.4,5.86,13.16,4.96,26.84,4.24,40.51l-3.18,.51c-1.18-9.54-2.36-19.08-3.55-28.61Z"/><path class="cls-93" d="M638.09,641.31c1.03-1.04,2.07-2.08,3.11-3.12,7.76,6.65,14.99,13.76,19.94,23.02-9.28-4.91-16.34-12.2-23.04-19.9Z"/><path class="cls-50" d="M240.49,312.91c-2.12,.06-3.96,.66-5.03,2.7-13.09-6.37-23.35-15.85-30.66-28.74,11.57,9.23,23.52,17.79,35.69,26.05Z"/><path class="cls-51" d="M295.28,223.5c-2.16,.93-2.17,2.94-2.42,4.83-5-7.62-10.85-14.96-8.6-27.29,7.2,7.36,8.48,15.23,11.02,22.46Z"/><path class="cls-6" d="M397.34,198.46c-1.35-2.61-2.71-5.22-4.68-9.04-.26,4.77-.45,8.23-.64,11.7-6.04-11.4-4.65-23.76-4.56-35.94,.02-2.43,.05-5.45,3.25-5.68,4.33-.3,4.18,3.41,3.88,6.07-1.27,11.17,2.85,21.84,2.76,32.88Z"/><path class="cls-34" d="M352.59,208.39c-3.2,1.76-2.28,4.95-2.68,7.69-6.8-12.61-10.98-26.16-14.52-40.04,9.87,8.68,12.07,21.29,17.2,32.35Z"/><path class="cls-90" d="M245.17,588.42c1.12,2.33,3.25,2.74,5.52,2.87-13.05,12.17-28.26,19.99-45.83,23.28,14.01-7.97,27.4-16.69,40.31-26.15Z"/><path class="cls-9" d="M300.23,678.14c.28,1.81,.28,3.77,2.36,4.67-4.05,7.22-9.66,12.41-20.11,15.97,4.78-10.37,11.44-15.36,17.75-20.64Z"/><path class="cls-79" d="M270.05,625.62c1.09,1.94,2.81,2.69,4.96,2.63-11.27,11-22.54,22-33.81,33-1.18-1.16-2.35-2.32-3.53-3.48,10.79-10.72,21.59-21.43,32.38-32.15Z"/><path class="cls-78" d="M349.91,683.04c.39,2.69-.56,5.84,2.61,7.57-3.59,12.83-9.43,24.58-17.36,35.38,2.9-15.06,7.55-29.44,14.75-42.96Z"/><path class="cls-69" d="M584.27,243.73c-1.19-1.18-2.38-2.36-3.57-3.55,7.03-14.81,17.25-26.78,31.65-35.22-10.71,12.03-19.08,25.63-28.08,38.77Z"/><path class="cls-71" d="M549.02,216.05c-.4-2.61,.47-5.64-2.45-7.42,5.19-12.06,10.38-24.12,15.56-36.19,1.03,.42,2.06,.83,3.08,1.25-3.53,14.76-9.75,28.59-16.2,42.35Z"/><path class="cls-82" d="M710.7,395c-3.44-4.61-8.58-1.72-12.79-2.91,11.47-5.22,23.65-4.94,35.83-4.58,2.84,.08,6.34,.07,5.85,4.25-.4,3.38-3.35,2.39-5.77,2.43-7.7,.12-15.4,.53-23.1,.83Z"/><path class="cls-57" d="M208.61,546.68c1.8,2.94,4.91,2.01,7.52,2.55-12.73,6.57-26.09,11.35-40.3,14.04,9.76-7.92,21.37-12.06,32.79-16.59Z"/><path class="cls-47" d="M650.85,312.9c1.53-2.93,1.59-5.12-2.61-5.13,13.48-10.37,26.67-21.32,45.02-21.78-14.78,8.01-28.25,18-42.41,26.91Z"/><path class="cls-89" d="M641.27,260.93c-1.04-1.03-2.09-2.06-3.13-3.1,6.4-6.9,12.02-14.7,23.61-20.59-5.81,11.63-13.62,17.25-20.48,23.69Z"/><path class="cls-28" d="M682.96,549.14c2.69-.46,5.87,.45,7.62-2.68,11.03,5.18,22.91,8.61,32.7,16.52-14.23-2.32-27.6-7.08-40.32-13.84Z"/></g><path class="cls-92" d="M452.98,343.67c3.73,.7,7.49,1.24,11.17,2.11,32.22,7.66,55.56,36.88,55.99,69.96,.08,6.39-1.99,12.28-4.07,18.15-7.68,21.66-17.47,42.42-27.38,63.11-13.54,28.27-27.37,56.4-41.07,84.58-.21,.44-.48,.85-.88,1.53-.37-.62-.6-.95-.77-1.31-17.68-36.75-35.61-73.38-52.92-110.3-6.56-14-11.96-28.57-17.42-43.06-4.62-12.27-2.44-24.64,2.12-36.33,10.85-27.83,31.35-43.86,61.03-47.99,.58-.08,1.14-.3,1.71-.46h12.49Zm-6.24,115.56c23.33,0,42.15-18.84,42.13-42.17-.02-23.13-18.87-42.03-42.02-42.1-23.23-.07-42.25,18.88-42.26,42.11-.01,23.32,18.82,42.16,42.14,42.16Z"/><path class="cls-44" d="M452.98,328.67c3.73,.7,7.49,1.24,11.17,2.11,32.22,7.66,55.56,36.88,55.99,69.96,.08,6.39-1.99,12.28-4.07,18.15-7.68,21.66-17.47,42.42-27.38,63.11-13.54,28.27-27.37,56.4-41.07,84.58-.21,.44-.48,.85-.88,1.53-.37-.62-.6-.95-.77-1.31-17.68-36.75-35.61-73.38-52.92-110.3-6.56-14-11.96-28.57-17.42-43.06-4.62-12.27-2.44-24.64,2.12-36.33,10.85-27.83,31.35-43.86,61.03-47.99,.58-.08,1.14-.3,1.71-.46h12.49Zm-6.24,115.56c23.33,0,42.15-18.84,42.13-42.17-.02-23.13-18.87-42.03-42.02-42.1-23.23-.07-42.25,18.88-42.26,42.11-.01,23.32,18.82,42.16,42.14,42.16Z"/></svg>